<svg width="38" height="38" fill="none" xmlns="http://www.w3.org/2000/svg"><path fill-rule="evenodd" clip-rule="evenodd" d="M24.41 38v-8.408h-5.08c-2.969 0-5.608-1.125-7.455-2.979-1.847-1.853-3.035-4.37-3.035-7.348 0-2.98 1.122-5.694 2.969-7.68 1.847-1.986 4.42-3.177 7.257-3.177 2.837 0 5.41 1.258 7.257 3.31 1.847 2.052 2.969 4.832 2.969 7.878v9.467c0 2.648.857 4.7 2.44 6.355C33.317 37.007 35.56 37.934 38 38V19.596c0-5.495-2.045-10.46-5.476-14.035C29.16 2.118 24.476 0 19 0 13.524 0 8.84 2.118 5.476 5.495 2.046 9.003 0 13.902 0 19.265c0 5.23 1.98 9.996 5.278 13.373C8.51 35.948 12.996 38 18.142 38h6.268z" fill="#EC6707"/></svg>