<svg width="159" height="26" fill="none" xmlns="http://www.w3.org/2000/svg"><path fill-rule="evenodd" clip-rule="evenodd" d="M115.701 11.818v8.475h3.81v-8.561c0-.895.36-1.655.968-2.196.613-.543 1.477-.858 2.477-.858 1.166 0 1.935.333 2.439.793.78.713.907 1.715.907 2.26v5.224c0 1.813 1.601 3.29 3.594 3.338h.216v-8.475c0-1.946-.685-3.593-1.95-4.742-1.221-1.109-2.989-1.754-5.206-1.754-2.163 0-3.957.68-5.219 1.808-1.298 1.163-2.036 2.81-2.036 4.688zm-36.168 3.99c0-1.548-.703-2.515-1.89-3.166-1.226-.67-2.974-1.022-5.013-1.324-1.045-.148-1.88-.288-2.462-.494-.657-.232-1.011-.551-1.011-1.04 0-.378.282-.778.919-1.054.475-.203 1.155-.34 2.073-.34.786 0 1.423.132 1.91.35.498.224.835.539 1.013.9h3.995c-.309-1.256-1.1-2.302-2.238-3.043-1.215-.793-2.828-1.243-4.68-1.243-4.65 0-6.868 2.343-6.868 4.601 0 1.584.941 2.55 2.234 3.169 1.33.637 3.042.915 4.507 1.118 1.478.208 2.368.403 2.897.658.6.289.77.64.77 1.142 0 .507-.349.892-.928 1.153-.57.255-1.373.385-2.29.385-.728 0-1.606-.151-2.35-.518-.564-.278-1.048-.679-1.338-1.23h-3.917c.294 1.443 1.14 2.622 2.385 3.451 1.339.893 3.141 1.387 5.218 1.387 2.079 0 3.856-.51 5.106-1.379 1.232-.855 1.958-2.065 1.958-3.483zM10.644 20.3v-3.326H8.418c-1.29 0-2.44-.435-3.26-1.16a3.797 3.797 0 0 1-1.31-2.883c0-1.176.5-2.242 1.307-3.017a4.568 4.568 0 0 1 3.168-1.257c1.238 0 2.358.497 3.168 1.296a4.337 4.337 0 0 1 1.307 3.098v3.725c.009 1.035.369 1.85 1.077 2.508.68.613 1.656.993 2.733 1.011v-7.247a7.493 7.493 0 0 0-2.387-5.525C12.764 6.168 10.719 5.33 8.323 5.33c-2.402 0-4.45.832-5.91 2.167A7.302 7.302 0 0 0 0 12.931a7.13 7.13 0 0 0 2.292 5.25c1.409 1.31 3.37 2.12 5.607 2.12h2.745zM159 17.312c-2.094-.094-3.03-1.514-3.03-2.932V9H159V5.705h-3.03v-5.7h-3.81v14.258c0 1.855.709 3.473 1.973 4.615 1.178 1.064 2.843 1.716 4.867 1.76v-3.326z" fill="#EC6707"/><path d="M112.246 16.588h-4.133v3.705h4.133v-3.705z" fill="#EC6707"/><path fill-rule="evenodd" clip-rule="evenodd" d="M90.246 11.818v8.475h3.81v-8.561c0-.895.36-1.655.968-2.196.613-.543 1.477-.858 2.477-.858 1.166 0 1.874.395 2.378.856.781.712.971 1.438.971 2.198v5.223c0 1.813 1.601 3.29 3.594 3.338h.216v-8.475c0-1.946-.686-3.593-1.95-4.742-1.221-1.109-2.989-1.754-5.206-1.754-2.163 0-3.958.68-5.219 1.808-1.301 1.163-2.039 2.81-2.039 4.688z" fill="#EC6707"/><path d="M86.52 5.702h-3.81v14.59h3.81V5.703zM62.326 0h-3.842v20.293h3.842V0z" fill="#EC6707"/><path fill-rule="evenodd" clip-rule="evenodd" d="M48.128 14.297h7.209c.037-.38.057-.75.057-1.108 0-2.344-.812-4.207-2.12-5.525-1.304-1.32-3.107-2.102-5.088-2.292a9.763 9.763 0 0 0-.965-.047c-2.292 0-4.372.866-5.878 2.26-1.506 1.397-2.442 3.327-2.442 5.458 0 2.1.936 4.009 2.442 5.393 1.506 1.38 3.586 2.237 5.875 2.237 1.958 0 3.64-.49 4.956-1.337a6.744 6.744 0 0 0 2.65-3.19H50.67c-.36.414-.803.729-1.302.955-.673.307-1.442.45-2.217.45a4.612 4.612 0 0 1-3.26-1.319 4.44 4.44 0 0 1-1.31-3.189c0-1.293.504-2.437 1.319-3.265a4.542 4.542 0 0 1 3.254-1.36c1.01 0 1.955.268 2.718.765a3.952 3.952 0 0 1 1.616 2.055l.09.26h-6.65a2.8 2.8 0 0 0 .84 1.914c.56.539 1.363.828 2.244.882l.115.003zm-22.212 5.996h2.744c2.238 0 4.188-.807 5.587-2.115a7.145 7.145 0 0 0 2.281-5.255 7.324 7.324 0 0 0-2.396-5.439c-1.451-1.332-3.49-2.162-5.89-2.162-2.395 0-4.44.838-5.897 2.193a7.482 7.482 0 0 0-2.388 5.525V26h3.81V13.04a4.35 4.35 0 0 1 1.308-3.098 4.498 4.498 0 0 1 3.168-1.295c1.238 0 2.356.481 3.168 1.256a4.17 4.17 0 0 1 1.307 3.018 3.798 3.798 0 0 1-1.31 2.882c-.824.726-1.97 1.16-3.26 1.16h-2.226v3.33h-.006zm115.851-5.996h7.208c.041-.38.058-.75.058-1.108 0-2.344-.812-4.207-2.12-5.525-1.304-1.32-3.107-2.102-5.088-2.292a9.757 9.757 0 0 0-.962-.047c-2.293 0-4.372.866-5.878 2.26-1.506 1.397-2.442 3.327-2.442 5.458 0 2.102.936 4.009 2.442 5.393 1.506 1.38 3.585 2.237 5.875 2.237 1.958 0 3.64-.49 4.956-1.337a6.766 6.766 0 0 0 2.649-3.19h-4.152a3.75 3.75 0 0 1-1.302.955c-.674.307-1.443.45-2.217.45a4.611 4.611 0 0 1-3.26-1.319 4.436 4.436 0 0 1-1.311-3.189 4.63 4.63 0 0 1 1.319-3.265 4.541 4.541 0 0 1 3.254-1.36c1.011 0 1.956.268 2.719.765a3.965 3.965 0 0 1 1.616 2.055l.089.26h-6.65c.023.713.331 1.402.835 1.894.556.538 1.354.845 2.247.902l.115.003z" fill="#EC6707"/><path fill-rule="evenodd" clip-rule="evenodd" d="M86.606.421h-1.95A2.05 2.05 0 0 0 83.28.94c-.354.32-.573.76-.573 1.243v1.762h1.95a2.05 2.05 0 0 0 1.376-.518c.354-.32.573-.76.573-1.244V.422z" fill="#73B129"/></svg>