<svg width="109" height="27" fill="none" xmlns="http://www.w3.org/2000/svg"><path d="M0 .094v25.931l13.806-12.966L0 .094z" fill="url(#paint0_linear)"/><path d="M17.512 9.578L11.941 6.53 0 0v.094L13.806 13.06l3.706-3.482z" fill="url(#paint1_linear)"/><path d="M0 26.025v.096l11.94-6.532 5.572-3.046-3.706-3.484L0 26.025z" fill="url(#paint2_linear)"/><path d="M17.512 9.578l-3.706 3.481 3.707 3.484 6.368-3.484-6.369-3.48z" fill="url(#paint3_linear)"/><path d="M86.91 18.13c-.52 0-.991-.092-1.421-.273a2.67 2.67 0 0 1-1.08-.835h-.087c.058.44.087.858.087 1.252v3.103h-1.206V10.451h.981l.167 1.032h.058c.31-.412.671-.712 1.082-.895.411-.183.885-.274 1.416-.274 1.056 0 1.87.34 2.445 1.025.575.684.86 1.643.86 2.877 0 1.238-.292 2.202-.874 2.886-.583.684-1.392 1.027-2.428 1.027zm-.174-6.846c-.815 0-1.402.213-1.764.64-.363.427-.551 1.106-.56 2.038v.254c0 1.06.185 1.817.56 2.275.372.455.971.684 1.793.684.688 0 1.227-.263 1.616-.792.389-.526.585-1.254.585-2.18 0-.942-.196-1.663-.585-2.166-.391-.504-.94-.753-1.645-.753zm6.269 6.708H91.8V7.285h1.206v10.707zm6.935 0l-.24-1.073h-.058c-.396.473-.792.791-1.188.959-.394.167-.887.251-1.479.251-.79 0-1.409-.192-1.856-.579-.447-.384-.671-.934-.671-1.643 0-1.522 1.285-2.32 3.856-2.394l1.35-.041v-.467c0-.593-.135-1.03-.403-1.312-.268-.281-.698-.423-1.29-.423-.665 0-1.414.192-2.252.58l-.37-.875a5.84 5.84 0 0 1 1.29-.474 5.883 5.883 0 0 1 1.407-.172c.95 0 1.652.2 2.109.6.457.398.686 1.04.686 1.92v5.148h-.891v-.005zm-2.726-.806c.752 0 1.339-.194 1.769-.583.427-.39.643-.936.643-1.639v-.682l-1.206.048c-.96.032-1.65.174-2.073.424-.423.249-.636.638-.636 1.167 0 .412.133.728.397.943.263.215.633.322 1.106.322zm4.318-6.735h1.292l1.745 4.3c.381.983.621 1.692.712 2.127h.058c.063-.233.196-.634.397-1.202.2-.567.857-2.307 1.971-5.225H109l-3.421 8.587c-.339.85-.735 1.452-1.189 1.806-.452.355-1.008.534-1.667.534a5.13 5.13 0 0 1-1.09-.117v-.916c.266.055.565.083.894.083.829 0 1.418-.44 1.774-1.32l.442-1.074-3.211-7.583zm-36.96.7c.382.3 1.182.932 1.182 2.13 0 1.168-.698 1.72-1.399 2.242-.218.203-.466.425-.466.773 0 .346.248.536.432.678l.6.441c.731.584 1.398 1.122 1.398 2.209 0 1.483-1.515 2.98-4.378 2.98-2.416 0-3.58-1.087-3.58-2.257 0-.567.3-1.37 1.283-1.925 1.031-.6 2.43-.677 3.18-.725-.235-.284-.501-.584-.501-1.071 0-.268.084-.426.167-.616a6.403 6.403 0 0 1-.534.032c-1.764 0-2.764-1.247-2.764-2.476 0-.726.35-1.531 1.065-2.115.95-.742 2.083-.867 2.982-.867h3.428l-1.065.567h-1.03zm-1.184 7.004c-.132-.016-.217-.016-.381-.016-.15 0-1.051.032-1.75.254-.367.126-1.432.503-1.432 1.625 0 1.119 1.15 1.924 2.93 1.924 1.598 0 2.448-.727 2.448-1.705.002-.805-.548-1.229-1.815-2.082zm.484-2.996c.382-.364.415-.868.415-1.152 0-1.135-.715-2.902-2.097-2.902-.432 0-.899.204-1.167.522-.283.332-.367.758-.367 1.167 0 1.058.65 2.809 2.083 2.809a1.767 1.767 0 0 0 1.133-.444zm-9.784 2.743c-2.643 0-4.057-1.952-4.057-3.717 0-2.062 1.779-3.826 4.306-3.826 2.443 0 3.972 1.81 3.972 3.717.002 1.858-1.51 3.826-4.221 3.826zm2.078-1.274c.399-.504.5-1.136.5-1.75 0-1.386-.698-4.032-2.76-4.032-.548 0-1.096.206-1.495.536-.647.551-.766 1.242-.766 1.922 0 1.559.814 4.125 2.827 4.125.648 0 1.312-.298 1.694-.801zm-11.087 1.274c-2.644 0-4.057-1.952-4.057-3.717 0-2.062 1.778-3.826 4.306-3.826 2.442 0 3.972 1.81 3.972 3.717 0 1.858-1.513 3.826-4.221 3.826zm2.078-1.274c.398-.504.5-1.136.5-1.75 0-1.386-.699-4.032-2.76-4.032-.548 0-1.097.206-1.495.536-.648.551-.766 1.242-.766 1.922 0 1.559.814 4.125 2.827 4.125.645 0 1.31-.298 1.694-.801zm-7.407 1.027l-2.389.522c-.969.142-1.838.268-2.757.268-4.614 0-6.369-3.214-6.369-5.731 0-3.072 2.491-5.921 6.754-5.921.903 0 1.77.126 2.556.332 1.254.331 1.838.743 2.206.981l-1.387 1.25-.585.126.418-.634c-.568-.522-1.604-1.488-3.576-1.488-2.64 0-4.63 1.9-4.63 4.672 0 2.975 2.275 5.779 5.918 5.779 1.07 0 1.621-.206 2.124-.396V14.87l-2.523.126 1.337-.683h3.544l-.435.396c-.118.097-.133.129-.167.255-.017.141-.033.601-.033.76v1.931h-.005z" fill="#F9F9F9"/><path d="M69.854 17.2c-.551-.048-.667-.142-.667-.76V7.477c.002-.034.005-.068.01-.103.067-.554.234-.647.754-.934h-2.392l-1.254.57h1.278v.007-.007 9.775c0 .316-.066.364-.452.838h2.96l.618-.348c-.285-.03-.57-.043-.855-.075zm6.802.144c-.182.093-.365.206-.547.284-.548.235-1.113.3-1.611.3-.53 0-1.36-.033-2.209-.614-1.176-.787-1.69-2.14-1.69-3.319 0-2.437 2.091-3.632 3.8-3.632.597 0 1.213.142 1.71.44.83.517 1.047 1.194 1.16 1.556l-3.9 1.494-1.278.094c.413 1.996 1.841 3.159 3.42 3.159.845 0 1.461-.282 2.024-.55l-.88.788zm-1.559-4.685c.314-.11.48-.204.48-.424 0-.63-.746-1.352-1.642-1.352-.665 0-1.909.487-1.909 2.185 0 .268.034.55.05.833l3.021-1.242zm3.163-2.188v1.037h-.133V10.47h-.363v-.107h.858v.107h-.362zm1.49 1.037v-1.049h-.007l-.338 1.049h-.104l-.34-1.049h-.005v1.049h-.121v-1.145h.208l.306.925h.005l.302-.925h.21v1.145h-.115z" fill="#F9F9F9"/><path d="M31.553 3.71h-.831c0-.107-.08-.414-.237-.92h-1.199c-.162.497-.244.804-.244.92h-.78c0-.063.203-.587.606-1.574.404-.984.607-1.527.607-1.627h.98c0 .094.185.627.55 1.604.367.977.548 1.51.548 1.598zm-1.199-1.386c-.294-.847-.444-1.303-.444-1.371h-.041c0 .064-.152.522-.46 1.37h.945zm4.548 1.386h-.64c0-.066-.237-.421-.713-1.064-.498-.678-.783-1.14-.85-1.39h-.042c.044.36.065.685.065.973 0 .405.012.897.037 1.481h-.638c.026-.508.038-1.067.038-1.675 0-.598-.012-1.108-.038-1.527h.77c0 .087.213.433.64 1.04.455.642.716 1.08.784 1.31h.038a8.93 8.93 0 0 1-.063-.984c0-.444-.012-.899-.036-1.366h.65c-.024.407-.036.916-.036 1.527a29.83 29.83 0 0 0 .034 1.675zM38.663 2c0 .465-.157.873-.473 1.22-.314.348-.756.522-1.324.522-.256 0-.61-.009-1.059-.03a38.427 38.427 0 0 0 0-3.201h.455c.075 0 .186-.003.333-.007.148-.005.244-.007.288-.007.625 0 1.077.146 1.358.442.28.295.422.647.422 1.062zm-.71.106c0-.316-.097-.58-.29-.797-.193-.215-.49-.322-.887-.322-.075 0-.176.006-.307.023.017.327.027.67.027 1.027 0 .392.01.78.027 1.165.113.02.224.032.338.032.372 0 .648-.11.826-.327.177-.22.266-.485.266-.801zM42.13 3.71h-.768c-.2-.581-.355-.938-.461-1.073-.106-.135-.28-.204-.52-.204-.101 0-.195 0-.287.002 0 .422.007.847.024 1.278h-.722a38.258 38.258 0 0 0 0-3.202h.449c.05 0 .16-.003.326-.007.165-.005.32-.007.46-.007.794 0 1.19.256 1.19.771 0 .408-.227.694-.678.854v.036c.173.046.328.174.459.387.128.21.306.6.529 1.165zm-.973-2.261c0-.325-.222-.49-.664-.49-.162 0-.307.012-.43.034.019.255.029.586.029.994.094.002.176.004.241.004.549.003.824-.18.824-.542zm4.695.601c0 .504-.162.92-.488 1.253a1.623 1.623 0 0 1-1.209.496 1.57 1.57 0 0 1-1.147-.455c-.307-.304-.462-.691-.462-1.158 0-.504.162-.92.488-1.252a1.624 1.624 0 0 1 1.208-.497 1.567 1.567 0 0 1 1.61 1.614zm-.716.074c0-.343-.091-.62-.278-.833a.875.875 0 0 0-.686-.32c-.253 0-.466.107-.642.322-.177.215-.266.485-.266.815 0 .341.092.618.278.833.186.213.413.32.683.32.254 0 .467-.107.643-.322.179-.22.268-.49.268-.815zm2.182 1.586h-.734a39.209 39.209 0 0 0 0-3.202h.734a38.583 38.583 0 0 0 0 3.202zM51.08 2c0 .465-.157.873-.473 1.22-.314.348-.757.522-1.324.522-.257 0-.61-.009-1.059-.03a38.427 38.427 0 0 0 0-3.201h.455c.075 0 .186-.003.333-.007.147-.005.244-.007.288-.007.623 0 1.077.146 1.357.442.283.295.423.647.423 1.062zm-.708.106c0-.316-.096-.58-.29-.797-.193-.215-.49-.322-.886-.322-.075 0-.177.006-.307.023.017.327.026.67.026 1.027 0 .392.01.78.027 1.165.114.02.225.032.338.032.372 0 .648-.11.826-.327.177-.22.266-.485.266-.801zm5.699 1.604h-.83c0-.108-.08-.414-.237-.92h-1.199c-.162.497-.244.803-.244.92h-.78c0-.064.203-.588.606-1.575.404-.984.606-1.526.606-1.627h.981c0 .094.184.627.549 1.604.365.978.548 1.511.548 1.598zm-1.198-1.387c-.295-.847-.444-1.302-.444-1.37h-.042c0 .063-.152.52-.459 1.37h.945zm4.227-.975c0 .392-.155.682-.462.868-.307.187-.684.279-1.13.279a2.24 2.24 0 0 1-.175-.005c0 .31.01.714.03 1.22h-.73a38.214 38.214 0 0 0 0-3.202h.451c.063 0 .187-.002.37-.007a21.7 21.7 0 0 1 .471-.006c.329 0 .607.07.834.21.227.14.34.357.34.643zm-.67.135c0-.35-.246-.526-.737-.526a2.13 2.13 0 0 0-.389.037c.02.309.03.661.03 1.052.043.003.094.005.15.005.63 0 .946-.188.946-.568zm3.782-.135c0 .392-.155.682-.462.868-.307.187-.684.279-1.13.279-.083 0-.14-.002-.174-.005 0 .31.01.714.029 1.22h-.73c.022-.473.034-1.032.034-1.675 0-.59-.012-1.099-.034-1.527h.452c.063 0 .186-.002.37-.007.18-.004.338-.006.473-.006.328 0 .606.07.834.21.227.142.338.357.338.643zm-.67.135c0-.35-.246-.526-.736-.526a2.07 2.07 0 0 0-.39.037c.02.309.03.661.03 1.052.043.003.094.005.15.005.632 0 .947-.188.947-.568zm5.76.567c0 .504-.162.92-.488 1.253a1.623 1.623 0 0 1-1.208.496 1.57 1.57 0 0 1-1.148-.455c-.306-.304-.461-.691-.461-1.158 0-.504.162-.92.488-1.252a1.623 1.623 0 0 1 1.208-.497c.457 0 .838.151 1.148.456.306.302.461.689.461 1.158zm-.718.074c0-.343-.091-.62-.277-.833a.876.876 0 0 0-.686-.32c-.254 0-.467.107-.643.322-.177.215-.266.485-.266.815 0 .341.092.618.28.833.186.213.413.32.684.32.254 0 .466-.107.643-.322.178-.22.266-.49.266-.815zM70.82 3.71h-.64c0-.066-.237-.421-.713-1.064-.497-.678-.782-1.14-.85-1.39h-.041c.043.36.065.685.065.973 0 .405.012.897.036 1.481h-.637a32.43 32.43 0 0 0 .038-1.675c0-.598-.012-1.108-.038-1.527h.77c0 .087.213.433.64 1.04.455.642.716 1.08.783 1.31h.04a8.929 8.929 0 0 1-.064-.984c0-.444-.012-.899-.036-1.366h.65c-.024.407-.036.916-.036 1.527-.003.618.01 1.176.034 1.675z" fill="#FCFCFD"/><defs><linearGradient id="paint0_linear" x1="6.903" y1=".094" x2="6.903" y2="26.026" gradientUnits="userSpaceOnUse"><stop stop-color="#2079B0"/><stop offset=".286" stop-color="#4A93B8"/><stop offset=".767" stop-color="#83BEBF"/><stop offset="1" stop-color="#97CFBF"/></linearGradient><linearGradient id="paint1_linear" x1=".001" y1="6.53" x2="17.513" y2="6.53" gradientUnits="userSpaceOnUse"><stop stop-color="#5ABCAB"/><stop offset="1" stop-color="#E6E99A"/></linearGradient><linearGradient id="paint2_linear" x1="8.757" y1="13.06" x2="8.757" y2="26.12" gradientUnits="userSpaceOnUse"><stop stop-color="#E53432"/><stop offset=".167" stop-color="#D73948"/><stop offset=".575" stop-color="#B33F72"/><stop offset=".862" stop-color="#9A4189"/><stop offset="1" stop-color="#904192"/></linearGradient><linearGradient id="paint3_linear" x1="18.844" y1="9.577" x2="18.844" y2="16.542" gradientUnits="userSpaceOnUse"><stop stop-color="#F18779"/><stop offset=".119" stop-color="#F2917A"/><stop offset=".713" stop-color="#FABC77"/><stop offset="1" stop-color="#FDCB73"/></linearGradient></defs></svg>