<?xml version="1.0" encoding="utf-8"?><svg xmlns="http://www.w3.org/2000/svg" xmlns:xlink="http://www.w3.org/1999/xlink"><symbol viewBox="0 0 22 4" id="3dots" xmlns="http://www.w3.org/2000/svg"><path fill-rule="evenodd" clip-rule="evenodd" d="M4 2a2 2 0 1 1-4 0 2 2 0 0 1 4 0zm9 0a2 2 0 1 1-4 0 2 2 0 0 1 4 0zm7 2a2 2 0 1 0 0-4 2 2 0 0 0 0 4z"/></symbol><symbol viewBox="0 0 9 6" id="arr-down" xmlns="http://www.w3.org/2000/svg"><path d="M.206.763a.703.703 0 0 0 0 .994l3.48 3.48a.701.701 0 0 0 .528.206.704.704 0 0 0 .517-.205l3.48-3.481a.703.703 0 0 0-.994-.995L4.21 3.77 1.2.763a.704.704 0 0 0-.994 0z"/></symbol><symbol fill="none" viewBox="0 0 14 25" id="arr-left" xmlns="http://www.w3.org/2000/svg"><path clip-rule="evenodd" d="M13.57 2.499L3.543 12.5l10.025 10a1.458 1.458 0 0 1 0 2.07 1.472 1.472 0 0 1-2.078 0L.432 13.534a1.455 1.455 0 0 1 0-2.07L11.492.43a1.473 1.473 0 0 1 2.077 0 1.46 1.46 0 0 1 0 2.07z"/></symbol><symbol fill="none" viewBox="0 0 14 25" id="arr-right" xmlns="http://www.w3.org/2000/svg"><path clip-rule="evenodd" d="M.43 22.501L10.457 12.5.431 2.5a1.458 1.458 0 0 1 0-2.07 1.472 1.472 0 0 1 2.078 0l11.059 11.036a1.455 1.455 0 0 1 0 2.07L2.508 24.57a1.474 1.474 0 0 1-2.077 0 1.46 1.46 0 0 1 0-2.07z"/></symbol><symbol viewBox="0 0 482.238 482.238" id="arr-right-full" xmlns="http://www.w3.org/2000/svg"><path d="M275.429 447.793l206.808-206.674-206.74-206.674-24.354 24.287 165.164 165.164H0v34.446h416.306L251.075 423.573z"/></symbol><symbol id="building" viewBox="0 0 47 47" xml:space="preserve" xmlns="http://www.w3.org/2000/svg"><style>.fst0{fill:none;stroke:#252525;stroke-linecap:round;stroke-linejoin:round;stroke-miterlimit:10}</style><path class="fst0" d="M2.5.5h28v46h-28zm28 18h14v28h-14zm-30 28h46"/><path class="fst0" d="M8.5 6.5h6v6h-6zm10 0h6v6h-6zm-10 10h6v6h-6zm10 0h6v6h-6zm-10 10h6v6h-6zm10 0h6v6h-6zm16-2h6v6h-6zm0 10h6v6h-6zm-22 4h8v8h-8z"/></symbol><symbol viewBox="0 0 36 27" id="check" xmlns="http://www.w3.org/2000/svg"><path d="M12 21.4L3.6 13 .8 15.8 12 27 36 3 33.2.2 12 21.4z"/></symbol><symbol viewBox="0 0 27 28" id="close" xmlns="http://www.w3.org/2000/svg"><path fill-rule="evenodd" clip-rule="evenodd" d="M18.031 20.718a1.5 1.5 0 1 0 2.122-2.122L15.555 14l4.597-4.596a1.5 1.5 0 1 0-2.122-2.122l-4.596 4.597-4.596-4.597a1.5 1.5 0 1 0-2.121 2.122L11.314 14l-4.596 4.596a1.5 1.5 0 1 0 2.12 2.122l4.597-4.597 4.596 4.597z"/></symbol><symbol viewBox="0 0 30 30" id="fb" xmlns="http://www.w3.org/2000/svg"><path fill-rule="evenodd" clip-rule="evenodd" d="M15-.001C6.716-.001 0 6.715 0 15c0 8.283 6.716 14.999 15 14.999 8.283 0 14.999-6.716 14.999-14.999C29.999 6.715 23.283-.001 15-.001zm3.297 9.861l-1.448.001c-1.135 0-1.356.54-1.356 1.331v1.747h2.709l-.353 2.735h-2.356v7.018h-2.824v-7.018h-2.362v-2.735h2.362v-2.017c0-2.341 1.429-3.616 3.517-3.616 1.002 0 1.861.074 2.111.108V9.86z"/></symbol><symbol viewBox="0 0 111 19" id="footer-logo" xmlns="http://www.w3.org/2000/svg"><path fill-rule="evenodd" clip-rule="evenodd" d="M80.773 8.636v6.193h2.66V8.573c0-.654.25-1.209.675-1.604.428-.397 1.031-.627 1.729-.627.814 0 1.351.243 1.703.58.545.52.633 1.252.633 1.651v3.817c0 1.325 1.118 2.405 2.51 2.44h.15V8.635c0-1.422-.478-2.625-1.361-3.465-.853-.81-2.087-1.282-3.635-1.282-1.51 0-2.762.497-3.643 1.322-.907.85-1.421 2.053-1.421 3.425zm-25.25 2.916c0-1.131-.49-1.838-1.319-2.313-.856-.49-2.077-.748-3.5-.968-.73-.108-1.313-.211-1.719-.361-.458-.17-.706-.403-.706-.76 0-.276.197-.569.642-.77.331-.149.806-.25 1.447-.25.55 0 .993.097 1.333.257.348.164.583.394.708.658h2.788c-.215-.918-.768-1.682-1.562-2.224-.848-.58-1.974-.909-3.267-.909-3.247 0-4.795 1.713-4.795 3.363 0 1.158.658 1.863 1.56 2.315.93.466 2.123.67 3.147.818 1.031.152 1.652.294 2.022.48.419.212.537.468.537.835 0 .37-.243.652-.647.842-.398.187-.96.282-1.599.282-.508 0-1.121-.11-1.64-.379-.394-.203-.732-.496-.935-.899h-2.734c.205 1.055.796 1.916 1.665 2.523.934.652 2.193 1.013 3.642 1.013 1.452 0 2.692-.373 3.565-1.008.86-.625 1.367-1.509 1.367-2.545zM7.43 14.835v-2.431H5.878c-.901 0-1.703-.318-2.276-.848a2.832 2.832 0 0 1-.915-2.106c0-.86.35-1.639.913-2.205a3.114 3.114 0 0 1 2.211-.919 3.07 3.07 0 0 1 2.212.947c.565.582.913 1.384.913 2.264v2.722c.006.757.257 1.352.751 1.833.475.448 1.156.726 1.908.74V9.534c0-1.581-.617-3.013-1.666-4.037-1.018-.99-2.445-1.603-4.118-1.603-1.676 0-3.106.608-4.125 1.584A5.45 5.45 0 0 0 0 9.449c0 1.506.601 2.861 1.6 3.837.983.958 2.353 1.549 3.915 1.549H7.43zM111 12.65c-1.462-.068-2.115-1.105-2.115-2.141V6.577H111V4.17h-2.115V.004h-2.66v10.419c0 1.355.495 2.538 1.377 3.372.823.778 1.985 1.255 3.398 1.287v-2.431z"/><path d="M78.36 12.122h-2.885v2.707h2.885v-2.707z"/><path fill-rule="evenodd" clip-rule="evenodd" d="M63.002 8.636v6.193h2.66V8.573c0-.654.251-1.209.675-1.604.429-.397 1.032-.627 1.73-.627.814 0 1.308.289 1.66.625.545.52.678 1.051.678 1.606v3.817c0 1.325 1.117 2.405 2.509 2.44h.15V8.635c0-1.422-.478-2.625-1.36-3.465-.853-.81-2.087-1.282-3.635-1.282-1.51 0-2.763.497-3.644 1.322-.908.85-1.423 2.053-1.423 3.425z"/><path d="M60.4 4.167h-2.66v10.662h2.66V4.167zM43.51 0h-2.68v14.83h2.682V0z"/><path fill-rule="evenodd" clip-rule="evenodd" d="M33.599 10.447h5.032c.026-.277.04-.547.04-.81 0-1.712-.566-3.073-1.48-4.037-.91-.964-2.169-1.536-3.552-1.675a6.512 6.512 0 0 0-.673-.034c-1.6 0-3.052.633-4.104 1.652a5.545 5.545 0 0 0-1.704 3.988c0 1.534.653 2.93 1.704 3.94a5.91 5.91 0 0 0 4.102 1.636c1.367 0 2.54-.358 3.46-.977a4.883 4.883 0 0 0 1.85-2.33h-2.9c-.251.301-.56.531-.909.697a3.61 3.61 0 0 1-1.548.329 3.146 3.146 0 0 1-2.275-.964c-.565-.586-.915-1.4-.915-2.33 0-.946.352-1.782.92-2.386a3.103 3.103 0 0 1 2.273-.995c.705 0 1.365.196 1.897.56a2.87 2.87 0 0 1 1.128 1.501l.063.19h-4.643c.01.52.234 1.04.587 1.4.39.393.951.604 1.567.644l.08.002zM18.092 14.83h1.916c1.562 0 2.923-.59 3.9-1.546a5.337 5.337 0 0 0 1.593-3.84 5.469 5.469 0 0 0-1.673-3.975c-1.013-.973-2.437-1.58-4.111-1.58-1.673 0-3.1.613-4.118 1.603-1.051 1.025-1.667 2.456-1.667 4.038V19h2.66V9.53c0-.88.35-1.683.913-2.265a3.07 3.07 0 0 1 2.212-.946c.864 0 1.644.351 2.211.918.565.566.913 1.348.913 2.205a2.83 2.83 0 0 1-.915 2.106c-.575.53-1.375.848-2.276.848h-1.554v2.433h-.004zm80.878-4.383h5.032c.028-.277.04-.547.04-.81 0-1.712-.567-3.073-1.48-4.037-.911-.964-2.169-1.536-3.552-1.675a6.504 6.504 0 0 0-.672-.034c-1.6 0-3.052.633-4.103 1.652a5.545 5.545 0 0 0-1.705 3.988c0 1.536.653 2.93 1.705 3.94a5.91 5.91 0 0 0 4.101 1.636c1.367 0 2.541-.358 3.46-.977a4.9 4.9 0 0 0 1.85-2.33h-2.899c-.25.301-.561.531-.909.697a3.611 3.611 0 0 1-1.548.329 3.146 3.146 0 0 1-2.276-.964c-.565-.586-.915-1.4-.915-2.33 0-.946.354-1.782.921-2.386a3.102 3.102 0 0 1 2.272-.995 3.36 3.36 0 0 1 1.898.56c.519.35.919.862 1.128 1.501l.062.19h-4.642a2.09 2.09 0 0 0 .583 1.384c.388.394.945.618 1.568.66l.08.002zM60.46.308H59.1c-.374 0-.714.145-.961.378-.248.234-.4.555-.4.909v1.287h1.36c.375 0 .715-.144.962-.378s.4-.555.4-.909V.308z"/></symbol><symbol id="house" viewBox="0 0 47 35" xml:space="preserve" xmlns="http://www.w3.org/2000/svg"><style>.kst0{fill:none;stroke:#252525;stroke-linecap:round;stroke-linejoin:round;stroke-miterlimit:10}</style><path class="kst0" d="M46.5 34.5H.5m20-28h24v28m-42 0v-18"/><path class="kst0" d="M44.5 16.5h-20l-11-10-13 12v-6l13-12 9.75 9m1.25 7v18m8-28v-4h6v4"/><path class="kst0" d="M13.11 20.31c1.66 0 3-1.34 3-3s-1.34-3-3-3-3 1.34-3 3 1.34 3 3 3zM10.5 34.5v-10h6v10"/></symbol><symbol viewBox="0 0 218 36" id="logo" xmlns="http://www.w3.org/2000/svg"><path fill-rule="evenodd" clip-rule="evenodd" d="M158.635 16.363v11.735h5.223V16.244c0-1.239.494-2.29 1.327-3.04.841-.753 2.026-1.188 3.396-1.188 1.599 0 2.653.46 3.344 1.098 1.07.987 1.244 2.374 1.244 3.13v7.233c0 2.51 2.195 4.556 4.928 4.62h.296V16.364c0-2.694-.94-4.974-2.673-6.566-1.675-1.534-4.099-2.428-7.139-2.428-2.966 0-5.425.94-7.155 2.504-1.781 1.61-2.791 3.89-2.791 6.49zm-49.59 5.525c0-2.143-.963-3.483-2.59-4.383-1.682-.93-4.079-1.416-6.874-1.833-1.433-.206-2.579-.4-3.376-.685-.9-.32-1.386-.763-1.386-1.44 0-.523.387-1.078 1.26-1.46.651-.28 1.583-.471 2.843-.471 1.077 0 1.95.184 2.617.486.683.31 1.145.746 1.39 1.246h5.477c-.423-1.74-1.509-3.187-3.068-4.214-1.666-1.098-3.878-1.721-6.416-1.721-6.377 0-9.418 3.245-9.418 6.371 0 2.194 1.291 3.53 3.064 4.387 1.825.883 4.17 1.268 6.18 1.549 2.025.288 3.245.558 3.972.911.821.4 1.054.886 1.054 1.581 0 .703-.478 1.236-1.271 1.596-.782.353-1.884.533-3.14.533-.998 0-2.203-.209-3.221-.717-.774-.385-1.438-.94-1.836-1.703h-5.37c.402 1.999 1.563 3.63 3.27 4.78 1.835 1.235 4.307 1.919 7.154 1.919 2.851 0 5.287-.706 7-1.909 1.69-1.185 2.685-2.86 2.685-4.823zm-94.451 6.22v-4.606H11.54c-1.768 0-3.344-.602-4.47-1.607a5.279 5.279 0 0 1-1.796-3.99c0-1.628.687-3.105 1.793-4.179a6.23 6.23 0 0 1 4.343-1.74c1.698 0 3.234.689 4.344 1.794a6.034 6.034 0 0 1 1.792 4.29v5.158c.012 1.434.505 2.56 1.477 3.472.932.85 2.27 1.376 3.747 1.401V18.067c0-2.997-1.212-5.71-3.273-7.65C17.5 8.54 14.696 7.38 11.41 7.38c-3.293 0-6.1 1.153-8.102 3A10.155 10.155 0 0 0 0 17.905a9.91 9.91 0 0 0 3.143 7.268c1.93 1.815 4.62 2.936 7.688 2.936h3.763zM218 23.97c-2.871-.13-4.154-2.096-4.154-4.06v-7.448H218V7.9h-4.154V.007h-5.224V19.75c0 2.568.972 4.808 2.705 6.39 1.615 1.472 3.897 2.376 6.673 2.438V23.97z"/><path d="M153.896 22.969h-5.666v5.129h5.666v-5.13z"/><path fill-rule="evenodd" clip-rule="evenodd" d="M123.734 16.363v11.735h5.224V16.244c0-1.239.493-2.29 1.326-3.04.841-.753 2.026-1.188 3.396-1.188 1.599 0 2.57.547 3.261 1.185 1.07.987 1.331 1.992 1.331 3.043v7.233c0 2.51 2.195 4.556 4.928 4.62h.296V16.364c0-2.694-.94-4.974-2.673-6.566-1.674-1.534-4.099-2.428-7.139-2.428-2.965 0-5.425.94-7.155 2.504-1.784 1.61-2.795 3.89-2.795 6.49z"/><path d="M118.624 7.895h-5.223v20.203h5.223V7.895zM85.453 0h-5.267v28.098h5.267V0z"/><path fill-rule="evenodd" clip-rule="evenodd" d="M65.987 19.795h9.883c.051-.526.08-1.037.08-1.534 0-3.245-1.114-5.824-2.907-7.65-1.789-1.826-4.26-2.91-6.977-3.173a13.25 13.25 0 0 0-1.323-.065c-3.143 0-5.993 1.2-8.058 3.13-2.066 1.934-3.349 4.607-3.349 7.556 0 2.907 1.283 5.55 3.349 7.467 2.065 1.912 4.915 3.097 8.054 3.097 2.685 0 4.991-.677 6.796-1.85a9.317 9.317 0 0 0 3.632-4.417h-5.693a5.179 5.179 0 0 1-1.785 1.322c-.924.425-1.978.623-3.04.623a6.291 6.291 0 0 1-4.47-1.826c-1.11-1.11-1.797-2.65-1.797-4.416 0-1.79.691-3.375 1.809-4.52a6.197 6.197 0 0 1 4.462-1.884c1.385 0 2.68.371 3.727 1.06a5.463 5.463 0 0 1 2.215 2.845l.122.36H61.6c.02.987.458 1.97 1.153 2.65.766.746 1.868 1.146 3.076 1.222l.158.003zm-30.455 8.303h3.763c3.068 0 5.741-1.117 7.66-2.928a9.938 9.938 0 0 0 3.128-7.276c0-2.928-1.209-5.612-3.285-7.531-1.99-1.845-4.786-2.994-8.075-2.994-3.285 0-6.089 1.16-8.087 3.037-2.065 1.941-3.273 4.653-3.273 7.65V36h5.224V18.056a6.05 6.05 0 0 1 1.792-4.29 6.136 6.136 0 0 1 4.344-1.793c1.698 0 3.23.666 4.343 1.74 1.11 1.073 1.793 2.553 1.793 4.177 0 1.6-.68 2.993-1.797 3.991-1.129 1.005-2.7 1.606-4.47 1.606H35.54v4.61h-.008zm158.84-8.303h9.883a14.46 14.46 0 0 0 .079-1.534c0-3.245-1.113-5.824-2.906-7.65-1.788-1.826-4.26-2.91-6.977-3.173-.43-.044-.872-.065-1.319-.065-3.143 0-5.993 1.2-8.058 3.13-2.066 1.934-3.349 4.607-3.349 7.556 0 2.91 1.283 5.55 3.349 7.467 2.065 1.912 4.915 3.097 8.054 3.097 2.685 0 4.991-.677 6.796-1.85 1.674-1.092 2.918-2.612 3.632-4.417h-5.693a5.148 5.148 0 0 1-1.785 1.322c-.924.425-1.978.623-3.04.623a6.29 6.29 0 0 1-4.47-1.826c-1.11-1.11-1.797-2.65-1.797-4.416 0-1.79.695-3.375 1.809-4.52a6.196 6.196 0 0 1 4.462-1.884c1.386 0 2.681.371 3.727 1.06a5.477 5.477 0 0 1 2.215 2.845l.122.36h-9.117a3.893 3.893 0 0 0 1.145 2.622c.763.746 1.856 1.17 3.08 1.25l.158.003zM118.743.583h-2.673c-.735 0-1.402.274-1.888.717-.485.443-.785 1.052-.785 1.722V5.46h2.673c.734 0 1.402-.273 1.887-.716.486-.443.786-1.052.786-1.722V.583z"/></symbol><symbol viewBox="0 0 12 16" id="marker" xmlns="http://www.w3.org/2000/svg"><path fill-rule="evenodd" clip-rule="evenodd" d="M11.197 8.727c.51-.856.803-1.85.803-2.909C12 2.605 9.314 0 6 0S0 2.605 0 5.818c0 1.06.292 2.054.803 2.91L6 16l5.197-7.273zM8.25 5.818C8.25 7.023 7.243 8 6 8s-2.25-.977-2.25-2.182S4.757 3.636 6 3.636s2.25.977 2.25 2.182z"/></symbol><symbol fill="none" viewBox="0 0 45 35" id="office" xmlns="http://www.w3.org/2000/svg"><path d="M.5 34.5h44m-10-30v-4h-24v4m32 0h-40v30h40v-30zm-40 6h40m-40 6h40m-40 6h40m-40 6h40m-32 6v-30m24 30v-30m-8 24v-24m-8 24v-24" stroke-miterlimit="10" stroke-linecap="round" stroke-linejoin="round"/></symbol><symbol viewBox="0 0 54 57" id="options-home" xmlns="http://www.w3.org/2000/svg"><path d="M42.859 17.779a3.212 3.212 0 0 1-2.2-.86c-1.21-1.14-1.21-3 0-4.141 1.179-1.103 3.22-1.103 4.39 0 1.21 1.14 1.21 3 0 4.14a3.187 3.187 0 0 1-2.19.86zm0-3.954c-.278 0-.555.103-.773.299a.991.991 0 0 0 0 1.458c.426.402 1.12.402 1.546 0a.991.991 0 0 0 0-1.458 1.114 1.114 0 0 0-.773-.3zm3.856-2.618c-2.131-2.01-5.59-2.01-7.722 0l-1.427-1.346c2.914-2.748 7.652-2.748 10.566 0l-1.417 1.346z"/><path d="M49.52 8.571c-3.677-3.468-9.654-3.468-13.322 0l-1.427-1.346c4.46-4.206 11.716-4.206 16.176 0L49.52 8.571z"/><path d="M52.573 5.683C47.21.626 38.498.626 33.135 5.683l-1.417-1.336C37.863-1.45 47.855-1.45 54 4.347l-1.427 1.336zM46.269 57H3.389C1.527 57 0 55.56 0 53.803V30.192c0-1.767 1.526-3.197 3.39-3.197h5.432v1.897c-.764 0-1.378.58-1.378 1.3v23.602c0 .72.614 1.299 1.378 1.299h32.025c.763 0 1.378-.58 1.378-1.3v-23.6c0-.72-.615-1.3-1.378-1.3v-1.897h5.422c1.873 0 3.39 1.44 3.39 3.197v23.602c0 1.766-1.517 3.206-3.39 3.206zm-2.33-1.898h2.33c.763 0 1.378-.58 1.378-1.299V30.192c0-.72-.615-1.3-1.378-1.3h-2.33c.189.402.298.841.298 1.3v23.602c0 .467-.11.906-.298 1.308zM3.39 28.892c-.762 0-1.377.58-1.377 1.3v23.602c0 .72.615 1.299 1.378 1.299h2.33a3.056 3.056 0 0 1-.298-1.3v-23.6a3 3 0 0 1 .297-1.3H3.39z"/><path d="M46.517 39.035h-2.013v5.936h2.013v-5.936zM34.652 37.1h-5.69c-1.04 0-1.893-.804-1.893-1.786V27.64H22.6v7.674c0 .982-.852 1.786-1.893 1.786h-5.69c-1.04 0-1.893-.804-1.893-1.786v-11.16h-2.537c-.674 0-1.259-.384-1.497-.982-.238-.598-.06-1.253.446-1.673L23.8 9.72a1.671 1.671 0 0 1 2.1 0l3.906 3.225v-.58c0-.664.575-1.206 1.279-1.206h4.42c.704 0 1.289.542 1.289 1.206v6.356l3.37 2.786c.506.42.684 1.075.446 1.673-.238.598-.823.982-1.497.982h-2.537v11.16c-.03.973-.882 1.777-1.923 1.777zm-12.47-11.358h5.304c.882 0 1.595.673 1.595 1.505v8.067l5.571-.112-.119-12.946h3.46l-3.232-2.674v-6.524h-2.964v4.075l-6.968-5.748-13.163 10.87h3.46v13.06l5.57-.113-.119-7.955c0-.832.724-1.505 1.606-1.505z"/><path d="M40.837 26.995h-3.836v1.898h3.836v-1.898zm-28.278 0H8.723v1.898h3.835v-1.898z"/></symbol><symbol viewBox="0 0 58 56" id="options-video" xmlns="http://www.w3.org/2000/svg"><path d="M13.39 21.992a3.56 3.56 0 0 1-2.52-1.026 3.428 3.428 0 0 1 0-4.924 3.627 3.627 0 0 1 5.04 0 3.428 3.428 0 0 1 0 4.924 3.582 3.582 0 0 1-2.52 1.026zm0-4.993c-.39 0-.79.147-1.09.44-.6.586-.6 1.534 0 2.12.58.567 1.59.567 2.17 0 .6-.586.6-1.534 0-2.12-.29-.293-.68-.44-1.08-.44zm4.84-3.224c-2.67-2.608-7.01-2.608-9.68 0L7.11 12.37c3.46-3.38 9.09-3.38 12.55 0l-1.43 1.406z"/><path d="M21.64 10.454c-4.55-4.446-11.94-4.446-16.49 0L3.71 9.047c5.34-5.217 14.02-5.217 19.36 0l-1.43 1.407z"/><path d="M1.44 6.82L0 5.423C3.58 1.925 8.33 0 13.39 0c5.06 0 9.82 1.925 13.39 5.423l-1.44 1.406c-3.19-3.116-7.44-4.836-11.96-4.836-4.5-.01-8.75 1.71-11.94 4.827zm52.6 28.86H34.63c-3.17 0-5.76-2.521-5.76-5.618v-.332c0-1.554-1.29-2.814-2.88-2.814H8.67c-1.4 0-2.58-.928-2.89-2.267L4.61 19.51c-.2-.86.02-1.748.58-2.432a2.986 2.986 0 0 1 2.31-1.085v1.984c-.28 0-.55.127-.72.341a.874.874 0 0 0-.18.762l1.17 5.14c.09.42.47.713.9.713H26c2.71 0 4.91 2.149 4.91 4.797v.332c0 2.003 1.67 3.634 3.72 3.634h19.41c1 0 1.81-.791 1.81-1.758V19.745c0-.977-.81-1.768-1.81-1.768H18.95v-1.984h35.09c2.12 0 3.84 1.68 3.84 3.752v12.183c0 2.071-1.72 3.752-3.84 3.752z"/><path d="M47.83 40.31h-26.8c-2.85 0-5.38-1.661-6.46-4.24l-4.49-6.8 1.71-1.074 4.58 6.965c.85 1.983 2.65 3.166 4.67 3.166H45.8v-1.163h2.03v3.146zM14.5 56H6.1V44.1h8.4V56zm-6.37-1.983h4.34v-7.924H8.13v7.924z"/><path d="M20.18 49.2h-6.69v-1.983h6.69c.78 0 1.42-.625 1.42-1.387v-5.852h2.03v5.852c0 1.856-1.55 3.37-3.45 3.37z"/><path d="M20.86 52.327h-7.38v-1.984h7.38c1.99 0 3.61-1.582 3.61-3.527v-7.503h2.03v7.503c0 3.039-2.53 5.51-5.64 5.51zm30.11-19.491c-2.46 0-4.32-3.01-4.32-6.995 0-3.986 1.86-6.995 4.32-6.995s4.32 3.009 4.32 6.995-1.85 6.995-4.32 6.995zm0-12.007c-1.08 0-2.29 2.14-2.29 5.012 0 2.872 1.21 5.011 2.29 5.011s2.29-2.139 2.29-5.011c0-2.873-1.21-5.012-2.29-5.012z"/></symbol><symbol viewBox="0 0 30 30" id="phone" xmlns="http://www.w3.org/2000/svg"><path fill-rule="evenodd" clip-rule="evenodd" d="M15 0C6.716 0 0 6.716 0 15c0 8.283 6.716 15 15 15 8.283 0 14.999-6.717 14.999-15 0-8.284-6.716-15-14.999-15zm7.05 20.364c0 .888-.738 1.626-1.625 1.571-6.696-.416-12.057-5.772-12.473-12.48-.055-.887.683-1.625 1.57-1.625h1.358a1.57 1.57 0 0 1 1.562 1.39l.228 1.979c.055.479-.11.95-.448 1.288L10.77 13.94a11.815 11.815 0 0 0 5.173 5.175l1.444-1.445a1.565 1.565 0 0 1 1.288-.447l1.993.228c.793.093 1.39.761 1.382 1.555v1.358z"/></symbol><symbol viewBox="0 0 22 22" id="question" xmlns="http://www.w3.org/2000/svg"><path fill-rule="evenodd" clip-rule="evenodd" d="M11 21c5.523 0 10-4.477 10-10S16.523 1 11 1 1 5.477 1 11s4.477 10 10 10zm0 1c6.075 0 11-4.925 11-11S17.075 0 11 0 0 4.925 0 11s4.925 11 11 11z"/><path d="M10.68 12.906c0-.373.06-.7.181-.98.131-.29.285-.532.462-.728.187-.196.43-.43.728-.7.374-.327.649-.607.826-.84.178-.243.266-.532.266-.868 0-.457-.177-.821-.532-1.092-.354-.28-.844-.42-1.47-.42-1.092 0-1.927.369-2.506 1.106l-1.022-.728a3.851 3.851 0 0 1 1.498-1.162c.616-.27 1.326-.406 2.128-.406 1.018 0 1.825.224 2.422.672.598.439.896 1.045.896 1.82 0 .383-.065.723-.196 1.022-.121.29-.27.532-.448.728-.177.196-.415.43-.714.7-.382.345-.667.649-.854.91-.177.261-.266.583-.266.966h-1.4zm.713 3.178a.92.92 0 0 1-.658-.252.902.902 0 0 1-.252-.644c0-.252.084-.462.252-.63a.894.894 0 0 1 .658-.266c.262 0 .476.089.644.266a.855.855 0 0 1 .252.63.877.877 0 0 1-.266.644.855.855 0 0 1-.63.252z"/></symbol><symbol viewBox="0 0 30 30" id="skype" xmlns="http://www.w3.org/2000/svg"><path fill-rule="evenodd" clip-rule="evenodd" d="M15 0C6.716 0 0 6.716 0 15c0 8.283 6.716 15 15 15 8.283 0 15-6.717 15-15 0-8.284-6.717-15-15-15zm3.805 23.669a4.674 4.674 0 0 1-2.227-.56 8.126 8.126 0 0 1-9.449-9.624 4.712 4.712 0 0 1 6.572-6.37 8.125 8.125 0 0 1 9.327 9.749 4.713 4.713 0 0 1-4.223 6.805zm-.226-8.878a5.798 5.798 0 0 0-1.389-.634 19.08 19.08 0 0 0-1.797-.471 34.867 34.867 0 0 1-1.124-.275 3.416 3.416 0 0 1-.654-.255 1.43 1.43 0 0 1-.485-.368.715.715 0 0 1-.162-.473c0-.3.166-.556.504-.778.352-.231.825-.349 1.408-.349.627 0 1.084.107 1.357.316.281.213.526.516.729.902.175.299.333.511.485.644.163.145.399.22.7.22.331 0 .612-.118.834-.35.222-.229.334-.493.334-.784 0-.301-.087-.613-.254-.926-.167-.312-.434-.61-.791-.889-.354-.278-.806-.501-1.341-.67-.533-.165-1.171-.25-1.897-.25-.907 0-1.71.129-2.383.377-.684.254-1.214.622-1.578 1.095a2.645 2.645 0 0 0-.552 1.645c0 .644.177 1.19.527 1.629.343.428.812.772 1.395 1.02.569.243 1.286.456 2.129.637.621.131 1.121.254 1.49.37.355.111.647.272.868.478.211.198.314.45.314.771 0 .407-.196.736-.602 1.014-.413.283-.964.426-1.636.426-.488 0-.886-.072-1.181-.21a1.807 1.807 0 0 1-.681-.528 4.073 4.073 0 0 1-.466-.827c-.13-.302-.29-.537-.477-.695a1.072 1.072 0 0 0-.716-.25c-.341 0-.625.106-.848.316-.225.21-.338.47-.338.768 0 .475.175.971.52 1.467.341.493.791.893 1.337 1.187.764.405 1.742.612 2.909.612.973 0 1.827-.152 2.54-.447.719-.301 1.274-.722 1.65-1.252a3.083 3.083 0 0 0 .569-1.814c0-.559-.111-1.042-.33-1.432a2.777 2.777 0 0 0-.917-.967z"/></symbol><symbol viewBox="0 0 30 30" id="telega" xmlns="http://www.w3.org/2000/svg"><path fill-rule="evenodd" clip-rule="evenodd" d="M15-.001c-8.284 0-15 6.716-15 15 0 8.283 6.716 15 15 15 8.283 0 15-6.717 15-15 0-8.284-6.717-15-15-15zm6.792 10.146l-2.425 11.591a.763.763 0 0 1-1.199.459l-3.661-2.687-1.866 1.905a.62.62 0 0 1-1.033-.247l-1.347-4.273-3.608-1.066a.518.518 0 0 1-.042-.979l14.2-5.533a.73.73 0 0 1 .981.83zm-2.966 1.467l-7.789 4.831a.354.354 0 0 0-.151.406l1.045 3.367c.022.071.125.061.133-.013l.254-2.257a.354.354 0 0 1 .117-.226l6.596-5.833c.158-.14-.026-.386-.205-.275z"/></symbol><symbol viewBox="0 0 20 20" id="user" xmlns="http://www.w3.org/2000/svg"><path fill-rule="evenodd" clip-rule="evenodd" d="M10 20C4.48 20 0 15.52 0 10S4.48 0 10 0s10 4.48 10 10-4.48 10-10 10zm0-2c1.86 0 3.57-.64 4.93-1.72-.42-.9-3.05-1.78-4.93-1.78s-4.5.88-4.93 1.78A7.893 7.893 0 0 0 10 18zm0-16c-4.41 0-8 3.59-8 8 0 1.82.62 3.49 1.64 4.83 1.43-1.74 4.9-2.33 6.36-2.33s4.93.59 6.36 2.33A7.95 7.95 0 0 0 18 10c0-4.41-3.59-8-8-8zm0 9c-1.94 0-3.5-1.56-3.5-3.5S8.06 4 10 4s3.5 1.56 3.5 3.5S11.94 11 10 11zm0-5c-.83 0-1.5.669-1.5 1.5 0 .83.67 1.5 1.5 1.5s1.5-.67 1.5-1.5c0-.831-.67-1.5-1.5-1.5z"/></symbol><symbol viewBox="0 0 30 30" id="viber" xmlns="http://www.w3.org/2000/svg"><path fill-rule="evenodd" clip-rule="evenodd" d="M19.281 8.387a21.694 21.694 0 0 0-8.143 0c-1.182.263-2.669 1.688-2.959 2.834a15.561 15.561 0 0 0 0 6.683c.29 1.145 1.777 2.57 2.959 2.834h.001c.052.01.091.056.091.109v3.249a.18.18 0 0 0 .311.124l1.542-1.583 1.451-1.489a.115.115 0 0 1 .082-.034 21.742 21.742 0 0 0 4.665-.376c1.182-.263 2.669-1.689 2.959-2.834a15.561 15.561 0 0 0 0-6.683c-.29-1.146-1.777-2.571-2.959-2.834zm.041 9.682c-.236.502-.58.92-1.076 1.186-.14.075-.308.099-.466.148-.181-.055-.355-.092-.515-.159-1.666-.691-3.2-1.583-4.415-2.95-.69-.778-1.231-1.655-1.688-2.584-.217-.441-.4-.899-.586-1.353-.169-.415.081-.844.344-1.156.247-.293.565-.517.909-.683.269-.129.534-.054.73.173.424.493.814 1.01 1.13 1.581.194.351.141.78-.211 1.019-.086.058-.164.126-.243.192a.79.79 0 0 0-.184.194.532.532 0 0 0-.035.465c.434 1.191 1.165 2.118 2.364 2.618.192.079.385.172.606.147.371-.044.49-.45.75-.662.254-.208.578-.211.851-.038.273.174.538.359.802.547.258.184.515.364.754.574.229.202.308.467.179.741zm-2.151-3.884c-.121.003-.046 0-.006-.001-.178 0-.275-.099-.293-.263-.013-.117-.023-.235-.051-.349a.982.982 0 0 0-.362-.567.942.942 0 0 0-.294-.142c-.134-.039-.273-.028-.406-.061-.145-.035-.225-.153-.203-.288a.263.263 0 0 1 .277-.211c.845.06 1.449.498 1.535 1.493.006.07.013.144-.003.211-.026.113-.108.169-.19.176.014 0 .019.001-.004.002zm-.526-2.275a2.96 2.96 0 0 0-.824-.253c-.124-.02-.249-.033-.374-.05-.152-.021-.232-.117-.225-.267a.234.234 0 0 1 .261-.231c.5.028.983.136 1.428.372.904.479 1.421 1.234 1.571 2.244.007.045.018.09.022.137.008.113.014.226.022.376-.003.027-.005.091-.021.152-.058.218-.39.245-.466.025a.647.647 0 0 1-.026-.211 2.649 2.649 0 0 0-.334-1.324 2.462 2.462 0 0 0-1.034-.97zm2.794 3.119c-.175.002-.253-.144-.264-.3-.023-.31-.038-.622-.081-.929-.226-1.624-1.52-2.967-3.136-3.256-.243-.043-.493-.055-.739-.08-.156-.016-.359-.026-.394-.219-.029-.163.108-.292.263-.301.042-.002.084 0 .126 0 2.179.061-.042 0 0 0 2.179.061 3.97 1.508 4.353 3.663.066.367.089.742.118 1.115.012.156-.077.305-.246.307zM15 0C6.716 0 0 6.716 0 15c0 8.283 6.716 15 15 15 8.283 0 15-6.717 15-15 0-8.284-6.717-15-15-15zm8.812 18.259l-.005.022c-.435 1.756-2.394 3.642-4.193 4.034l-.02.003c-1.454.278-2.92.417-4.385.417-.43 0-.862-.014-1.293-.038l-1.986 2.066c-.492.512-1.357.163-1.357-.547v-1.961c-1.732-.494-3.545-2.293-3.961-3.974l-.005-.022a17.17 17.17 0 0 1 0-7.394l.005-.021c.435-1.757 2.394-3.641 4.192-4.034l.021-.004a23.3 23.3 0 0 1 8.769 0l.02.004c1.799.393 3.758 2.277 4.193 4.034l.005.021a17.17 17.17 0 0 1 0 7.394z"/></symbol><symbol viewBox="0 0 19 18" id="wallet" xmlns="http://www.w3.org/2000/svg"><path fill-rule="evenodd" clip-rule="evenodd" d="M18 13.72V16c0 1.1-.9 2-2 2H2a2 2 0 0 1-2-2V2a2 2 0 0 1 2-2h14c1.1 0 2 .9 2 2v2.28A2 2 0 0 1 19 6v6a2 2 0 0 1-1 1.72zM16 2H2v14h14v-2h-6c-1.1 0-2-.9-2-2V6c0-1.1.9-2 2-2h6V2zm1 4h-7v6h7V6zm-4 1.5a1.5 1.5 0 1 1 0 3 1.5 1.5 0 0 1 0-3z"/></symbol></svg>