<svg width="47" height="47" viewBox="0 0 47 47" fill="none" xmlns="http://www.w3.org/2000/svg">
    <path fill-rule="evenodd" clip-rule="evenodd" d="M2 0V46H12V38H20V46H44V18H30V0H2ZM8 6H14V12H8V6ZM18 6H24V12H18V6ZM8 16H14V22H8V16ZM18 16H24V22H18V16ZM34 24H40V30H34V24ZM8 26H14V32H8V26ZM18 26H24V32H18V26ZM34 34H40V40H34V34Z" fill="white" />
    <path d="M46.5 46.5H0.5" stroke="#73B129" stroke-miterlimit="10" stroke-linecap="round" stroke-linejoin="round" />
    <path d="M2.5 46.5V0.5H30.5V46.5" stroke="#73B129" stroke-miterlimit="10" stroke-linecap="round" stroke-linejoin="round" />
    <path d="M14.5 6.5H8.5V12.5H14.5V6.5Z" stroke="#73B129" stroke-miterlimit="10" stroke-linecap="round" stroke-linejoin="round" />
    <path d="M24.5 6.5H18.5V12.5H24.5V6.5Z" stroke="#73B129" stroke-miterlimit="10" stroke-linecap="round" stroke-linejoin="round" />
    <path d="M14.5 16.5H8.5V22.5H14.5V16.5Z" stroke="#73B129" stroke-miterlimit="10" stroke-linecap="round" stroke-linejoin="round" />
    <path d="M24.5 16.5H18.5V22.5H24.5V16.5Z" stroke="#73B129" stroke-miterlimit="10" stroke-linecap="round" stroke-linejoin="round" />
    <path d="M40.5 24.5H34.5V30.5H40.5V24.5Z" stroke="#73B129" stroke-miterlimit="10" stroke-linecap="round" stroke-linejoin="round" />
    <path d="M40.5 34.5H34.5V40.5H40.5V34.5Z" stroke="#73B129" stroke-miterlimit="10" stroke-linecap="round" stroke-linejoin="round" />
    <path d="M14.5 26.5H8.5V32.5H14.5V26.5Z" stroke="#73B129" stroke-miterlimit="10" stroke-linecap="round" stroke-linejoin="round" />
    <path d="M24.5 26.5H18.5V32.5H24.5V26.5Z" stroke="#73B129" stroke-miterlimit="10" stroke-linecap="round" stroke-linejoin="round" />
    <path d="M12.5 46.5V38.5H20.5V46.5" stroke="#73B129" stroke-miterlimit="10" stroke-linecap="round" stroke-linejoin="round" />
    <path d="M30.5 18.5H44.5V46.5" stroke="#73B129" stroke-miterlimit="10" stroke-linecap="round" stroke-linejoin="round" />
</svg>