<svg width="27" height="28" viewBox="0 0 27 28" fill="" xmlns="http://www.w3.org/2000/svg">
<path fill-rule="evenodd" clip-rule="evenodd" d="M18.0312 20.7175C18.617 21.3033 19.5668 21.3033 20.1525 20.7175C20.7383 20.1317 20.7383 19.182 20.1525 18.5962L15.5563 14L20.1525 9.40381C20.7383 8.81802 20.7383 7.86827 20.1525 7.28249C19.5668 6.6967 18.617 6.6967 18.0312 7.28249L13.435 11.8787L8.83883 7.28249C8.25305 6.6967 7.3033 6.6967 6.71751 7.28249C6.13173 7.86827 6.13173 8.81802 6.71751 9.40381L11.3137 14L6.71751 18.5962C6.13173 19.182 6.13173 20.1317 6.71751 20.7175C7.3033 21.3033 8.25305 21.3033 8.83883 20.7175L13.435 16.1213L18.0312 20.7175Z" fill="#373A3C"/>
</svg>
