<svg width="30" height="30" viewBox="0 0 30 30" fill="" xmlns="http://www.w3.org/2000/svg">
<path fill-rule="evenodd" clip-rule="evenodd" d="M15 -0.000976562C6.716 -0.000976562 0 6.71502 0 15C0 23.283 6.716 29.999 15 29.999C23.283 29.999 29.999 23.283 29.999 15C29.999 6.71502 23.283 -0.000976562 15 -0.000976562ZM18.297 9.86002L16.849 9.86102C15.714 9.86102 15.493 10.401 15.493 11.192V12.939H18.202L17.849 15.674H15.493V22.692H12.669V15.674H10.307V12.939H12.669V10.922C12.669 8.58102 14.098 7.30602 16.186 7.30602C17.188 7.30602 18.047 7.38002 18.297 7.41402V9.86002Z" fill="white"/>
</svg>
