<svg width="111" height="19" viewBox="0 0 111 19" fill="" xmlns="http://www.w3.org/2000/svg">
<path fill-rule="evenodd" clip-rule="evenodd" d="M80.7726 8.63608V14.8294H83.4324V8.57335C83.4324 7.91942 83.6837 7.36434 84.108 6.96894C84.5362 6.57165 85.1393 6.34163 85.837 6.34163C86.6512 6.34163 87.188 6.58495 87.5398 6.92142C88.0847 7.44228 88.1731 8.17415 88.1731 8.57335V12.3905C88.1731 13.7154 89.2909 14.7952 90.6822 14.8294H90.831H90.833V8.63608C90.833 7.21417 90.3545 6.01087 89.4719 5.17065C88.6194 4.36084 87.385 3.8894 85.837 3.8894C84.3271 3.8894 83.0746 4.38555 82.194 5.21056C81.2873 6.06029 80.7726 7.26359 80.7726 8.63608Z" fill="white"/>
<path fill-rule="evenodd" clip-rule="evenodd" d="M55.5231 11.552C55.5231 10.421 55.0326 9.71381 54.2043 9.23857C53.3478 8.74813 52.1274 8.4915 50.704 8.27099C49.9742 8.16263 49.3912 8.05998 48.9851 7.90981C48.5267 7.74062 48.2794 7.50681 48.2794 7.14943C48.2794 6.87379 48.4764 6.58104 48.9207 6.37954C49.2525 6.23127 49.7269 6.13052 50.3683 6.13052C50.9171 6.13052 51.3615 6.22747 51.7012 6.38715C52.049 6.55063 52.2843 6.78064 52.4089 7.04488H55.1974C54.9823 6.12672 54.4294 5.36253 53.6353 4.82076C52.7869 4.24097 51.661 3.91211 50.3683 3.91211C47.1214 3.91211 45.5733 5.62487 45.5733 7.27489C45.5733 8.43257 46.2307 9.13782 47.1334 9.59025C48.0623 10.056 49.2565 10.2594 50.2798 10.4077C51.3112 10.5597 51.9324 10.7023 52.3024 10.8886C52.7205 11.0996 52.8392 11.3562 52.8392 11.7231C52.8392 12.0938 52.5959 12.3751 52.1918 12.5652C51.7937 12.7515 51.2328 12.8466 50.5935 12.8466C50.0848 12.8466 49.4716 12.7363 48.9529 12.4683C48.5589 12.2649 48.2211 11.9721 48.018 11.5691H45.2838C45.4889 12.6242 46.08 13.4853 46.9485 14.0917C47.8833 14.7437 49.1419 15.1049 50.5914 15.1049C52.043 15.1049 53.2835 14.7323 54.156 14.0974C55.0165 13.472 55.5231 12.588 55.5231 11.552Z" fill="white"/>
<path fill-rule="evenodd" clip-rule="evenodd" d="M7.43069 14.835V12.4037H5.8766C4.97591 12.4037 4.17373 12.0862 3.60075 11.5559C3.03179 11.0293 2.68599 10.2936 2.68599 9.4496C2.68599 8.59037 3.03581 7.81098 3.59874 7.2445C4.16368 6.67801 4.94575 6.32634 5.81026 6.32634C6.67476 6.32634 7.45683 6.68942 8.02177 7.27301C8.58671 7.8547 8.93452 8.6569 8.93452 9.53704V12.2592C8.94056 13.0158 9.19186 13.6108 9.68644 14.0917C10.1609 14.5403 10.8425 14.8179 11.5944 14.8312V9.53514C11.5944 7.95355 10.9772 6.52213 9.9277 5.49752C8.9104 4.50713 7.48297 3.89502 5.81026 3.89502C4.13352 3.89502 2.70408 4.50332 1.68477 5.47851C0.621235 6.49172 0 7.90603 0 9.4496C0 10.9552 0.60113 12.3105 1.60033 13.2857C2.58345 14.2438 3.95258 14.835 5.51472 14.835H7.43069Z" fill="white"/>
<path fill-rule="evenodd" clip-rule="evenodd" d="M111 12.6509C109.538 12.5825 108.885 11.5446 108.885 10.5086V6.57739H111V4.16889H108.885V0.00390625H106.225V10.423C106.225 11.7784 106.72 12.9608 107.602 13.7953C108.425 14.5728 109.587 15.0499 111 15.0822V12.6509Z" fill="white"/>
<path d="M78.36 12.1223H75.475V14.8293H78.36V12.1223Z" fill="white"/>
<path fill-rule="evenodd" clip-rule="evenodd" d="M63.0021 8.63608V14.8294H65.6619V8.57335C65.6619 7.91942 65.9132 7.36434 66.3374 6.96894C66.7657 6.57165 67.3688 6.34163 68.0664 6.34163C68.8807 6.34163 69.3753 6.63058 69.7271 6.96704C70.2719 7.4879 70.4046 8.01827 70.4046 8.57335V12.3905C70.4046 13.7154 71.5224 14.7952 72.9137 14.8294H73.0625H73.0645V8.63608C73.0645 7.21417 72.586 6.01087 71.7034 5.17065C70.8509 4.36084 69.6165 3.8894 68.0685 3.8894C66.5586 3.8894 65.3061 4.38555 64.4255 5.21056C63.5168 6.06029 63.0021 7.26359 63.0021 8.63608Z" fill="white"/>
<path d="M60.4006 4.16699H57.7407V14.8294H60.4006V4.16699Z" fill="white"/>
<path d="M43.5106 0H40.8286V14.8293H43.5106V0Z" fill="white"/>
<path fill-rule="evenodd" clip-rule="evenodd" d="M33.599 10.4475H38.6312C38.6573 10.17 38.6714 9.90002 38.6714 9.63769C38.6714 7.92493 38.1045 6.56385 37.1917 5.60007C36.281 4.63629 35.0224 4.0641 33.6392 3.92533C33.4201 3.90252 33.1949 3.89111 32.9657 3.89111C31.3654 3.89111 29.9138 4.52413 28.8623 5.54304C27.8109 6.56385 27.1575 7.97435 27.1575 9.53123C27.1575 11.0653 27.8109 12.4606 28.8623 13.4719C29.9138 14.4813 31.3654 15.1067 32.9637 15.1067C34.3308 15.1067 35.5049 14.7493 36.4237 14.1296C37.2762 13.5555 37.9094 12.7533 38.2733 11.7991H35.3742C35.1229 12.1013 34.8133 12.3313 34.4655 12.4967C33.9951 12.721 33.4583 12.8256 32.9175 12.8256C32.0308 12.8256 31.2226 12.4644 30.6416 11.8618C30.0767 11.2763 29.7268 10.4627 29.7268 9.53123C29.7268 8.58646 30.0787 7.75004 30.6476 7.14554C31.2287 6.52583 32.0349 6.15134 32.9195 6.15134C33.6251 6.15134 34.2846 6.34714 34.8173 6.71022C35.336 7.0619 35.7361 7.57135 35.9452 8.21197L36.0075 8.40207H31.3654C31.3754 8.92293 31.5986 9.44189 31.9524 9.80117C32.3425 10.1947 32.9034 10.4057 33.5186 10.4456L33.599 10.4475Z" fill="white"/>
<path fill-rule="evenodd" clip-rule="evenodd" d="M18.0922 14.8294H20.0081C21.5703 14.8294 22.9314 14.2401 23.9084 13.2839C24.9036 12.3087 25.5007 10.9514 25.5007 9.44398C25.5007 7.89851 24.8855 6.4823 23.828 5.46909C22.8147 4.49581 21.3913 3.8894 19.7166 3.8894C18.0439 3.8894 16.6165 4.50151 15.5992 5.49191C14.5477 6.51652 13.9325 7.94793 13.9325 9.52952V19.0001H16.5923V9.52952C16.5923 8.64938 16.9422 7.84718 17.5051 7.26549C18.07 6.6819 18.8521 6.31882 19.7166 6.31882C20.5811 6.31882 21.3612 6.67049 21.9281 7.23698C22.4931 7.80346 22.8409 8.58475 22.8409 9.44208C22.8409 10.2861 22.4951 11.0218 21.9261 11.5483C21.3511 12.0787 20.551 12.3962 19.6503 12.3962H18.0962V14.8294H18.0922Z" fill="white"/>
<path fill-rule="evenodd" clip-rule="evenodd" d="M98.9694 10.4475H104.002C104.03 10.17 104.042 9.90002 104.042 9.63769C104.042 7.92493 103.475 6.56385 102.562 5.60007C101.651 4.63629 100.393 4.0641 99.0097 3.92533C98.7905 3.90252 98.5653 3.89111 98.3382 3.89111C96.7378 3.89111 95.2863 4.52413 94.2348 5.54304C93.1833 6.56385 92.5299 7.97435 92.5299 9.53123C92.5299 11.0672 93.1833 12.4606 94.2348 13.4719C95.2863 14.4813 96.7378 15.1067 98.3361 15.1067C99.7033 15.1067 100.877 14.7493 101.796 14.1296C102.649 13.5536 103.282 12.7514 103.646 11.7991H100.747C100.497 12.1013 100.186 12.3313 99.838 12.4967C99.3675 12.721 98.8307 12.8256 98.2899 12.8256C97.4033 12.8256 96.5951 12.4644 96.0141 11.8618C95.4491 11.2763 95.0993 10.4627 95.0993 9.53123C95.0993 8.58646 95.4531 7.75004 96.0201 7.14554C96.6011 6.52583 97.4073 6.15134 98.2919 6.15134C98.9976 6.15134 99.657 6.34714 100.19 6.71022C100.709 7.0619 101.109 7.57325 101.318 8.21197L101.38 8.40207H96.7378C96.7539 8.92293 96.969 9.42668 97.3209 9.78596C97.7089 10.1795 98.2658 10.4038 98.889 10.4456L98.9694 10.4475Z" fill="white"/>
<path fill-rule="evenodd" clip-rule="evenodd" d="M60.4608 0.308105H59.0997C58.7258 0.308105 58.386 0.452578 58.1387 0.686395C57.8914 0.920211 57.7386 1.24147 57.7386 1.59505V2.88199H59.0997C59.4737 2.88199 59.8135 2.73752 60.0607 2.5037C60.308 2.26989 60.4608 1.94863 60.4608 1.59505V0.308105Z" fill="white"/>
</svg>
