<svg width="47" height="36" viewBox="0 0 47 36" fill="none" xmlns="http://www.w3.org/2000/svg">
<g clip-path="url(#clip0)">
<path fill-rule="evenodd" clip-rule="evenodd" d="M2 34.62V16.29L0 18.33V12.22L13 0L20 6.62H32V3.62H38V6.62H44V34.62H16V24.62H10V34.62H2ZM13 20.62C14.66 20.62 16 19.28 16 17.62C16 15.96 14.66 14.62 13 14.62C11.34 14.62 10 15.96 10 17.62C10 19.28 11.34 20.62 13 20.62Z" fill="white"/>
<path d="M46.5 35.12H0.5" stroke="#252525" stroke-miterlimit="10" stroke-linecap="round" stroke-linejoin="round"/>
<path d="M20.5 7.12H44.5V35.12" stroke="#252525" stroke-miterlimit="10" stroke-linecap="round" stroke-linejoin="round"/>
<path d="M2.5 35.12V17.12" stroke="#252525" stroke-miterlimit="10" stroke-linecap="round" stroke-linejoin="round"/>
<path d="M44.5 17.12H24.5L13.5 7.12L0.5 19.12V13.12L13.5 1.12L23.25 10.12" stroke="#252525" stroke-miterlimit="10" stroke-linecap="round" stroke-linejoin="round"/>
<path d="M24.5 17.12V35.12" stroke="#252525" stroke-miterlimit="10" stroke-linecap="round" stroke-linejoin="round"/>
<path d="M32.5 7.12V3.12H38.5V7.12" stroke="#252525" stroke-miterlimit="10" stroke-linecap="round" stroke-linejoin="round"/>
<path d="M13 20.62C14.66 20.62 16 19.28 16 17.62C16 15.96 14.66 14.62 13 14.62C11.34 14.62 10 15.96 10 17.62C10 19.28 11.34 20.62 13 20.62Z" stroke="#252525" stroke-miterlimit="10" stroke-linecap="round" stroke-linejoin="round"/>
<path d="M10.5 35.12V25.12H16.5V35.12" stroke="#252525" stroke-miterlimit="10" stroke-linecap="round" stroke-linejoin="round"/>
</g>
<defs>
<clipPath id="clip0">
<rect width="47" height="35.62" fill="white"/>
</clipPath>
</defs>
</svg>
