<svg width="218" height="36" viewBox="0 0 218 36" fill="" xmlns="http://www.w3.org/2000/svg">
<path fill-rule="evenodd" clip-rule="evenodd" d="M158.635 16.3631V28.0978H163.858V16.2442C163.858 15.0052 164.352 13.9535 165.185 13.2043C166.026 12.4515 167.211 12.0157 168.581 12.0157C170.18 12.0157 171.234 12.4767 171.925 13.1143C172.995 14.1012 173.169 15.4878 173.169 16.2442V23.4766C173.169 25.9871 175.364 28.0329 178.097 28.0978H178.389H178.393V16.3631C178.393 13.6689 177.453 11.389 175.72 9.797C174.045 8.26263 171.621 7.36938 168.581 7.36938C165.615 7.36938 163.156 8.30946 161.426 9.87264C159.645 11.4826 158.635 13.7626 158.635 16.3631Z" fill="#EC6707"/>
<path fill-rule="evenodd" clip-rule="evenodd" d="M109.045 21.8882C109.045 19.7452 108.082 18.4053 106.455 17.5048C104.773 16.5756 102.376 16.0893 99.5809 15.6715C98.1476 15.4662 97.0025 15.2717 96.2049 14.9872C95.3047 14.6666 94.819 14.2236 94.819 13.5465C94.819 13.0242 95.206 12.4695 96.0786 12.0877C96.7301 11.8068 97.6619 11.6159 98.9215 11.6159C99.9994 11.6159 100.872 11.7996 101.539 12.1021C102.222 12.4119 102.684 12.8477 102.929 13.3484H108.406C107.983 11.6087 106.897 10.1608 105.338 9.13426C103.672 8.03571 101.46 7.4126 98.9215 7.4126C92.5447 7.4126 89.5044 10.6578 89.5044 13.7842C89.5044 15.9777 90.7955 17.3139 92.5684 18.1712C94.3926 19.0536 96.738 19.439 98.7478 19.72C100.773 20.0081 101.993 20.2782 102.72 20.6312C103.541 21.031 103.774 21.5173 103.774 22.2124C103.774 22.9147 103.296 23.4478 102.503 23.808C101.721 24.161 100.619 24.3411 99.3637 24.3411C98.3648 24.3411 97.1605 24.1322 96.1418 23.6243C95.3679 23.2389 94.7045 22.6842 94.3057 21.9207H88.9358C89.3385 23.9197 90.4994 25.5513 92.2051 26.7002C94.0412 27.9357 96.5129 28.62 99.3598 28.62C102.211 28.62 104.647 27.9141 106.36 26.7111C108.05 25.5261 109.045 23.8512 109.045 21.8882Z" fill="#EC6707"/>
<path fill-rule="evenodd" clip-rule="evenodd" d="M14.5936 28.1085V23.5018H11.5414C9.77251 23.5018 8.19706 22.9003 7.07174 21.8954C5.95432 20.8977 5.27518 19.5038 5.27518 17.9046C5.27518 16.2766 5.96222 14.7998 7.0678 13.7265C8.17732 12.6532 9.71328 11.9868 11.4111 11.9868C13.109 11.9868 14.6449 12.6748 15.7545 13.7805C16.864 14.8827 17.5471 16.4026 17.5471 18.0703V23.2281C17.5589 24.6616 18.0525 25.7889 19.0238 26.7002C19.9557 27.5502 21.2942 28.0761 22.7709 28.1013V18.0667C22.7709 15.07 21.5588 12.3578 19.4976 10.4164C17.4997 8.53991 14.6963 7.38013 11.4111 7.38013C8.11809 7.38013 5.31072 8.5327 3.30883 10.3804C1.22008 12.3002 0 14.9799 0 17.9046C0 20.7572 1.1806 23.3253 3.143 25.173C5.07381 26.9883 7.76273 28.1085 10.8307 28.1085H14.5936Z" fill="#EC6707"/>
<path fill-rule="evenodd" clip-rule="evenodd" d="M218 23.9699C215.129 23.8402 213.846 21.8736 213.846 19.9106V12.4621H218V7.89863H213.846V0.00708008H208.622V19.7486C208.622 22.3166 209.594 24.557 211.327 26.1382C212.942 27.6113 215.224 28.5153 218 28.5766V23.9699Z" fill="#EC6707"/>
<path d="M153.896 22.9688H148.23V28.0977H153.896V22.9688Z" fill="#EC6707"/>
<path fill-rule="evenodd" clip-rule="evenodd" d="M123.734 16.3631V28.0978H128.958V16.2442C128.958 15.0052 129.451 13.9535 130.284 13.2043C131.125 12.4515 132.31 12.0157 133.68 12.0157C135.279 12.0157 136.25 12.5632 136.941 13.2007C138.011 14.1876 138.272 15.1925 138.272 16.2442V23.4766C138.272 25.9871 140.467 28.0329 143.2 28.0978H143.492H143.496V16.3631C143.496 13.6689 142.556 11.389 140.823 9.797C139.149 8.26263 136.724 7.36938 133.684 7.36938C130.719 7.36938 128.259 8.30946 126.529 9.87264C124.745 11.4826 123.734 13.7626 123.734 16.3631Z" fill="#EC6707"/>
<path d="M118.624 7.89526H113.401V28.0978H118.624V7.89526Z" fill="#EC6707"/>
<path d="M85.4532 0H80.1859V28.0976H85.4532V0Z" fill="#EC6707"/>
<path fill-rule="evenodd" clip-rule="evenodd" d="M65.9871 19.7954H75.8702C75.9215 19.2695 75.9492 18.7581 75.9492 18.261C75.9492 15.0158 74.8357 12.4369 73.0431 10.6108C71.2544 8.78471 68.7827 7.70057 66.0661 7.43764C65.6357 7.39441 65.1935 7.3728 64.7434 7.3728C61.6004 7.3728 58.7496 8.5722 56.6845 10.5028C54.6194 12.4369 53.3362 15.1095 53.3362 18.0593C53.3362 20.966 54.6194 23.6097 56.6845 25.5259C58.7496 27.4384 61.6004 28.6234 64.7394 28.6234C67.4244 28.6234 69.7303 27.9463 71.5348 26.7721C73.2089 25.6844 74.4527 24.1644 75.1674 22.3563H69.4736C68.9801 22.929 68.372 23.3648 67.6889 23.6782C66.765 24.1032 65.7107 24.3013 64.6486 24.3013C62.9073 24.3013 61.32 23.6169 60.1789 22.4752C59.0694 21.3658 58.3823 19.8242 58.3823 18.0593C58.3823 16.2692 59.0733 14.6845 60.1908 13.5391C61.3319 12.3649 62.9152 11.6553 64.6525 11.6553C66.0385 11.6553 67.3336 12.0263 68.3799 12.7143C69.3986 13.3806 70.1844 14.3459 70.595 15.5597L70.7174 15.9199H61.6004C61.6201 16.9068 62.0584 17.8901 62.7533 18.5708C63.5193 19.3164 64.621 19.7162 65.8292 19.7918L65.9871 19.7954Z" fill="#EC6707"/>
<path fill-rule="evenodd" clip-rule="evenodd" d="M35.5325 28.0977H39.2954C42.3633 28.0977 45.0365 26.9812 46.9554 25.1695C48.9099 23.3218 50.0826 20.7501 50.0826 17.8938C50.0826 14.9656 48.8744 12.2822 46.7975 10.3625C44.8075 8.51836 42.0119 7.36938 38.7228 7.36938C35.4377 7.36938 32.6343 8.52916 30.6363 10.4057C28.5713 12.3471 27.363 15.0592 27.363 18.0559V36.0001H32.5869V18.0559C32.5869 16.3883 33.2739 14.8683 34.3795 13.7662C35.489 12.6604 37.025 11.9725 38.7228 11.9725C40.4207 11.9725 41.9527 12.6388 43.0662 13.7122C44.1757 14.7855 44.8588 16.2658 44.8588 17.8902C44.8588 19.4894 44.1797 20.8833 43.0622 21.881C41.933 22.8859 40.3615 23.4874 38.5925 23.4874H35.5404V28.0977H35.5325Z" fill="#EC6707"/>
<path fill-rule="evenodd" clip-rule="evenodd" d="M194.372 19.7954H204.255C204.311 19.2695 204.334 18.7581 204.334 18.261C204.334 15.0158 203.221 12.4369 201.428 10.6108C199.64 8.78471 197.168 7.70057 194.451 7.43764C194.021 7.39441 193.579 7.3728 193.132 7.3728C189.989 7.3728 187.139 8.5722 185.074 10.5028C183.008 12.4369 181.725 15.1095 181.725 18.0593C181.725 20.9696 183.008 23.6097 185.074 25.5259C187.139 27.4384 189.989 28.6234 193.128 28.6234C195.813 28.6234 198.119 27.9463 199.924 26.7721C201.598 25.6808 202.842 24.1608 203.556 22.3563H197.863C197.373 22.929 196.761 23.3648 196.078 23.6782C195.154 24.1032 194.1 24.3013 193.038 24.3013C191.296 24.3013 189.709 23.6169 188.568 22.4752C187.458 21.3658 186.771 19.8242 186.771 18.0593C186.771 16.2692 187.466 14.6845 188.58 13.5391C189.721 12.3649 191.304 11.6553 193.042 11.6553C194.428 11.6553 195.723 12.0263 196.769 12.7143C197.788 13.3806 198.573 14.3495 198.984 15.5597L199.106 15.9199H189.989C190.021 16.9068 190.443 17.8612 191.134 18.542C191.897 19.2876 192.99 19.7126 194.214 19.7918L194.372 19.7954Z" fill="#EC6707"/>
<path fill-rule="evenodd" clip-rule="evenodd" d="M118.743 0.583496H116.07C115.335 0.583496 114.668 0.857233 114.182 1.30025C113.697 1.74328 113.397 2.35198 113.397 3.02192V5.46033H116.07C116.804 5.46033 117.472 5.1866 117.957 4.74358C118.443 4.30055 118.743 3.69185 118.743 3.02192V0.583496Z" fill="#73B129"/>
</svg>
