<svg width="54" height="57" viewBox="0 0 54 57" fill="" xmlns="http://www.w3.org/2000/svg">
<path d="M42.859 17.7787C42.0264 17.7787 41.2532 17.4703 40.6585 16.9187C39.4493 15.7783 39.4493 13.9181 40.6585 12.7777C41.838 11.6747 43.8799 11.6747 45.0495 12.7777C46.2587 13.9181 46.2587 15.7783 45.0495 16.9187C44.4647 17.4703 43.6816 17.7787 42.859 17.7787ZM42.859 13.8247C42.5814 13.8247 42.3039 13.9275 42.0858 14.1238C41.6596 14.5257 41.6596 15.1801 42.0858 15.582C42.512 15.984 43.2059 15.984 43.6321 15.582C44.0583 15.1801 44.0583 14.5257 43.6321 14.1238C43.414 13.9181 43.1365 13.8247 42.859 13.8247Z" fill="white"/>
<path d="M46.7147 11.2074C44.5837 9.19745 41.1244 9.19745 38.9934 11.2074L37.566 9.86121C40.4801 7.11267 45.218 7.11267 48.1321 9.86121L46.7147 11.2074Z" fill="white"/>
<path d="M49.5199 8.57116C45.8426 5.10322 39.8657 5.10322 36.1983 8.57116L34.771 7.22511C39.2313 3.01871 46.4868 3.01871 50.9472 7.22511L49.5199 8.57116Z" fill="white"/>
<path d="M52.5727 5.68318C47.2103 0.626271 38.4978 0.626271 33.1354 5.68318L31.718 4.34651C37.8634 -1.44884 47.8546 -1.44884 54 4.34651L52.5727 5.68318Z" fill="white"/>
<path d="M46.2687 56.9999H3.38987C1.52643 56.9999 0 55.5604 0 53.8031V30.1915C0 28.4248 1.52643 26.9946 3.38987 26.9946H8.82158V28.8922C8.05837 28.8922 7.44383 29.4717 7.44383 30.1915V53.7937C7.44383 54.5135 8.05837 55.093 8.82158 55.093H40.8469C41.6101 55.093 42.2247 54.5135 42.2247 53.7937V30.1915C42.2247 29.4717 41.6101 28.8922 40.8469 28.8922V26.9946H46.2687C48.1421 26.9946 49.6586 28.4341 49.6586 30.1915V53.7937C49.6586 55.5604 48.1421 56.9999 46.2687 56.9999ZM43.9394 55.1024H46.2687C47.0319 55.1024 47.6465 54.5228 47.6465 53.8031V30.1915C47.6465 29.4717 47.0319 28.8922 46.2687 28.8922H43.9394C44.1278 29.2941 44.2368 29.7334 44.2368 30.1915V53.7937C44.2368 54.2611 44.1278 54.7004 43.9394 55.1024ZM3.38987 28.8922C2.62665 28.8922 2.01211 29.4717 2.01211 30.1915V53.7937C2.01211 54.5135 2.62665 55.093 3.38987 55.093H5.71916C5.53084 54.6911 5.42181 54.2518 5.42181 53.7937V30.1915C5.42181 29.7241 5.53084 29.2848 5.71916 28.8922H3.38987Z" fill="white"/>
<path d="M46.5165 39.0347H44.5044V44.9706H46.5165V39.0347Z" fill="white"/>
<path d="M34.652 37.0997H28.9626C27.9218 37.0997 27.0694 36.2958 27.0694 35.3143V27.6399H22.5992V35.3143C22.5992 36.2958 21.7467 37.0997 20.706 37.0997H15.0166C13.9758 37.0997 13.1234 36.2958 13.1234 35.3143V24.1533H10.5859C9.91193 24.1533 9.32713 23.7701 9.08924 23.1718C8.85136 22.5736 9.02977 21.9192 9.53528 21.4986L23.7985 9.72069C24.3932 9.22527 25.2952 9.22527 25.8998 9.72069L29.8051 12.9456V12.366C29.8051 11.7024 30.38 11.1602 31.0837 11.1602H35.5044C36.2082 11.1602 36.793 11.7024 36.793 12.366V18.7224L40.163 21.5079C40.6685 21.9286 40.847 22.5829 40.6091 23.1812C40.3712 23.7794 39.7864 24.1626 39.1124 24.1626H36.5749V35.3236C36.5452 36.2958 35.6928 37.0997 34.652 37.0997ZM22.1829 25.7424H27.4857C28.3679 25.7424 29.0815 26.4154 29.0815 27.2473V35.3143L34.652 35.2021L34.5331 22.2557H37.9923L34.7611 19.5824V13.0578H31.7974V17.1333L24.8293 11.3846L11.6663 22.2557H15.1256V35.3143L20.6961 35.2021L20.5771 27.2473C20.5771 26.4154 21.3007 25.7424 22.1829 25.7424Z" fill="white"/>
<path d="M40.8371 26.9946H37.0012V28.8926H40.8371V26.9946Z" fill="white"/>
<path d="M12.5585 26.9946H8.72253V28.8926H12.5585V26.9946Z" fill="white"/>
</svg>
