<svg width="58" height="56" viewBox="0 0 58 56" fill="" xmlns="http://www.w3.org/2000/svg">
<path d="M13.3901 21.9917C12.4401 21.9917 11.5401 21.6302 10.8701 20.9658C9.48014 19.6079 9.48014 17.3999 10.8701 16.0419C12.2601 14.6839 14.5201 14.6839 15.9101 16.0419C17.3001 17.3999 17.3001 19.6079 15.9101 20.9658C15.2401 21.6204 14.3501 21.9917 13.3901 21.9917ZM13.3901 16.9994C13.0001 16.9994 12.6001 17.1459 12.3001 17.439C11.7001 18.0252 11.7001 18.9728 12.3001 19.559C12.8801 20.1256 13.8901 20.1256 14.4701 19.559C15.0701 18.9728 15.0701 18.0252 14.4701 17.439C14.1801 17.1459 13.7901 16.9994 13.3901 16.9994Z" fill="white"/>
<path d="M18.2299 13.7754C15.5599 11.167 11.2199 11.167 8.54986 13.7754L7.10986 12.3687C10.5699 8.98844 16.1999 8.98844 19.6599 12.3687L18.2299 13.7754Z" fill="white"/>
<path d="M21.6399 10.4539C17.09 6.00847 9.69996 6.00847 5.14996 10.4539L3.70996 9.04702C9.04996 3.8297 17.73 3.8297 23.0699 9.04702L21.6399 10.4539Z" fill="white"/>
<path d="M1.44 6.81964L0 5.4225C3.58 1.92474 8.33001 0 13.39 0C18.45 0 23.21 1.92474 26.78 5.4225L25.34 6.82942C22.15 3.7127 17.9 1.99313 13.38 1.99313C8.88001 1.98336 4.63 3.70293 1.44 6.81964Z" fill="white"/>
<path d="M54.0401 35.6796H34.6301C31.4601 35.6796 28.8701 33.1589 28.8701 30.0619V29.7297C28.8701 28.1763 27.5801 26.9159 25.9901 26.9159H8.67014C7.27014 26.9159 6.09014 25.9878 5.78014 24.6493L4.61014 19.5103C4.41014 18.6506 4.63014 17.7615 5.19014 17.0776C5.75014 16.3937 6.60014 15.9932 7.50014 15.9932V17.9765C7.22014 17.9765 6.95014 18.1035 6.78014 18.3184C6.60014 18.5333 6.54014 18.8069 6.60014 19.0805L7.77014 24.2194C7.86014 24.6396 8.24014 24.9327 8.67014 24.9327H26.0001C28.7101 24.9327 30.9101 27.082 30.9101 29.7297V30.0619C30.9101 32.0647 32.5801 33.6963 34.6301 33.6963H54.0401C55.0401 33.6963 55.8501 32.9049 55.8501 31.9377V19.7448C55.8501 18.7678 55.0401 17.9765 54.0401 17.9765H18.9501V15.9932H54.0401C56.1601 15.9932 57.8801 17.6736 57.8801 19.7448V31.9279C57.8801 33.9992 56.1601 35.6796 54.0401 35.6796Z" fill="white"/>
<path d="M47.8301 40.3099H21.0301C18.1801 40.3099 15.6501 38.649 14.5701 36.0699L10.0801 29.2702L11.7901 28.1956L16.3701 35.1613C17.2201 37.1445 19.0201 38.3266 21.0401 38.3266H45.8001V37.1641H47.8301V40.3099Z" fill="white"/>
<path d="M14.5001 56H6.1001V44.1001H14.5001V56ZM8.1301 54.0167H12.4701V46.0932H8.1301V54.0167Z" fill="white"/>
<path d="M20.18 49.2008H13.49V47.2174H20.18C20.96 47.2174 21.6 46.5921 21.6 45.83V39.9775H23.63V45.83C23.63 47.6864 22.08 49.2008 20.18 49.2008Z" fill="white"/>
<path d="M20.86 52.3267H13.48V50.3434H20.86C22.85 50.3434 24.47 48.7607 24.47 46.8165V39.3132H26.5V46.8165C26.5 49.855 23.97 52.3267 20.86 52.3267Z" fill="white"/>
<path d="M50.9699 32.8358C48.5099 32.8358 46.6499 29.8267 46.6499 25.8406C46.6499 21.8546 48.5099 18.8455 50.9699 18.8455C53.4299 18.8455 55.2899 21.8546 55.2899 25.8406C55.2899 29.8267 53.4399 32.8358 50.9699 32.8358ZM50.9699 20.8287C49.8899 20.8287 48.6799 22.9683 48.6799 25.8406C48.6799 28.713 49.8899 30.8525 50.9699 30.8525C52.0499 30.8525 53.2599 28.713 53.2599 25.8406C53.2599 22.9683 52.0499 20.8287 50.9699 20.8287Z" fill="white"/>
</svg>
