<svg width="30" height="30" viewBox="0 0 30 30" fill="" xmlns="http://www.w3.org/2000/svg">
<path fill-rule="evenodd" clip-rule="evenodd" d="M15 0C6.716 0 0 6.716 0 15C0 23.283 6.716 30 15 30C23.283 30 29.999 23.283 29.999 15C29.999 6.716 23.283 0 15 0ZM22.05 20.364C22.05 21.252 21.312 21.99 20.425 21.935C13.729 21.519 8.368 16.163 7.952 9.455C7.897 8.568 8.635 7.83 9.522 7.83H10.88C11.681 7.83 12.348 8.427 12.442 9.22L12.67 11.199C12.725 11.678 12.56 12.149 12.222 12.487L10.77 13.94C11.901 16.17 13.722 17.985 15.943 19.115L17.387 17.67C17.725 17.333 18.196 17.168 18.675 17.223L20.668 17.451C21.461 17.544 22.058 18.212 22.05 19.006V20.364Z" fill="white"/>
</svg>
