<svg width="22" height="22" viewBox="0 0 22 22" fill="" xmlns="http://www.w3.org/2000/svg">
<path fill-rule="evenodd" clip-rule="evenodd" d="M11 21C16.5228 21 21 16.5228 21 11C21 5.47715 16.5228 1 11 1C5.47715 1 1 5.47715 1 11C1 16.5228 5.47715 21 11 21ZM11 22C17.0751 22 22 17.0751 22 11C22 4.92487 17.0751 0 11 0C4.92487 0 0 4.92487 0 11C0 17.0751 4.92487 22 11 22Z" fill="#979D9D"/>
<path d="M10.6793 12.906C10.6793 12.5327 10.74 12.206 10.8613 11.926C10.992 11.6367 11.146 11.394 11.3233 11.198C11.51 11.002 11.7526 10.7687 12.0513 10.498C12.4246 10.1713 12.7 9.89135 12.8773 9.65801C13.0546 9.41535 13.1433 9.12601 13.1433 8.79001C13.1433 8.33268 12.966 7.96868 12.6113 7.69801C12.2566 7.41801 11.7666 7.27801 11.1413 7.27801C10.0493 7.27801 9.21398 7.64668 8.63531 8.38401L7.61331 7.65601C8.00531 7.15201 8.50465 6.76468 9.11131 6.49401C9.72731 6.22335 10.4366 6.08801 11.2393 6.08801C12.2566 6.08801 13.064 6.31201 13.6613 6.76001C14.2586 7.19868 14.5573 7.80535 14.5573 8.58001C14.5573 8.96268 14.492 9.30335 14.3613 9.60201C14.24 9.89135 14.0906 10.134 13.9133 10.33C13.736 10.526 13.498 10.7593 13.1993 11.03C12.8166 11.3753 12.532 11.6787 12.3453 11.94C12.168 12.2013 12.0793 12.5233 12.0793 12.906H10.6793ZM11.3933 16.084C11.132 16.084 10.9126 16 10.7353 15.832C10.5673 15.6547 10.4833 15.44 10.4833 15.188C10.4833 14.936 10.5673 14.726 10.7353 14.558C10.9126 14.3807 11.132 14.292 11.3933 14.292C11.6546 14.292 11.8693 14.3807 12.0373 14.558C12.2053 14.726 12.2893 14.936 12.2893 15.188C12.2893 15.44 12.2006 15.6547 12.0233 15.832C11.8553 16 11.6453 16.084 11.3933 16.084Z" fill="#979D9D"/>
</svg>
