<svg width="30" height="30" viewBox="0 0 30 30" fill="" xmlns="http://www.w3.org/2000/svg">
<path fill-rule="evenodd" clip-rule="evenodd" d="M15 0C6.716 0 0 6.716 0 15C0 23.283 6.716 30 15 30C23.283 30 30 23.283 30 15C30 6.716 23.283 0 15 0ZM18.805 23.669C18 23.669 17.241 23.467 16.578 23.109C16.095 23.198 15.599 23.245 15.091 23.245C10.603 23.245 6.964 19.607 6.964 15.12C6.964 14.561 7.02 14.013 7.129 13.485C6.718 12.785 6.481 11.973 6.481 11.102C6.481 8.5 8.59 6.39 11.194 6.39C12.116 6.39 12.974 6.656 13.701 7.115C14.152 7.035 14.617 6.995 15.091 6.995C19.577 6.995 23.216 10.632 23.216 15.12C23.216 15.718 23.15 16.301 23.028 16.864C23.341 17.494 23.519 18.205 23.519 18.956C23.519 21.56 21.408 23.669 18.805 23.669ZM18.579 14.791C18.199 14.543 17.731 14.331 17.19 14.157C16.655 13.986 16.051 13.827 15.393 13.686C14.874 13.565 14.495 13.473 14.269 13.411C14.048 13.351 13.829 13.265 13.615 13.156C13.409 13.054 13.246 12.931 13.13 12.788C13.021 12.656 12.968 12.5 12.968 12.315C12.968 12.015 13.134 11.759 13.472 11.537C13.824 11.306 14.297 11.188 14.88 11.188C15.507 11.188 15.964 11.295 16.237 11.504C16.518 11.717 16.763 12.02 16.966 12.406C17.141 12.705 17.299 12.917 17.451 13.05C17.614 13.195 17.85 13.27 18.151 13.27C18.482 13.27 18.763 13.152 18.985 12.92C19.207 12.691 19.319 12.427 19.319 12.136C19.319 11.835 19.232 11.523 19.065 11.21C18.898 10.898 18.631 10.6 18.274 10.321C17.92 10.043 17.468 9.82 16.933 9.651C16.4 9.486 15.762 9.401 15.036 9.401C14.129 9.401 13.326 9.53 12.653 9.778C11.969 10.032 11.439 10.4 11.075 10.873C10.709 11.351 10.523 11.904 10.523 12.518C10.523 13.162 10.7 13.708 11.05 14.147C11.393 14.575 11.862 14.919 12.445 15.167C13.014 15.41 13.731 15.623 14.574 15.804C15.195 15.935 15.695 16.058 16.064 16.174C16.419 16.285 16.711 16.446 16.932 16.652C17.143 16.85 17.246 17.102 17.246 17.423C17.246 17.83 17.05 18.159 16.644 18.437C16.231 18.72 15.68 18.863 15.008 18.863C14.52 18.863 14.122 18.791 13.827 18.653C13.535 18.514 13.306 18.337 13.146 18.125C12.98 17.906 12.824 17.628 12.68 17.298C12.55 16.996 12.39 16.761 12.203 16.603C12.008 16.437 11.767 16.353 11.487 16.353C11.146 16.353 10.862 16.459 10.639 16.669C10.414 16.879 10.301 17.139 10.301 17.437C10.301 17.912 10.476 18.408 10.821 18.904C11.162 19.397 11.612 19.797 12.158 20.091C12.922 20.496 13.9 20.703 15.067 20.703C16.04 20.703 16.894 20.551 17.607 20.256C18.326 19.955 18.881 19.534 19.257 19.004C19.635 18.468 19.826 17.859 19.826 17.19C19.826 16.631 19.715 16.148 19.496 15.758C19.277 15.371 18.969 15.044 18.579 14.791Z" fill="white"/>
</svg>
