<svg width="30" height="30" viewBox="0 0 30 30" fill="" xmlns="http://www.w3.org/2000/svg">
<path fill-rule="evenodd" clip-rule="evenodd" d="M15 -0.000976562C6.716 -0.000976562 0 6.71502 0 14.999C0 23.282 6.716 29.999 15 29.999C23.283 29.999 30 23.282 30 14.999C30 6.71502 23.283 -0.000976562 15 -0.000976562ZM21.792 10.145L19.367 21.736C19.254 22.28 18.615 22.524 18.168 22.195L14.507 19.508L12.641 21.413C12.314 21.747 11.748 21.612 11.608 21.166L10.261 16.893L6.653 15.827C6.179 15.688 6.151 15.028 6.611 14.848L20.811 9.31502C21.352 9.10402 21.911 9.57702 21.792 10.145ZM18.826 11.612L11.037 16.443C10.9 16.528 10.838 16.695 10.886 16.849L11.931 20.216C11.953 20.287 12.056 20.277 12.064 20.203L12.318 17.946C12.328 17.858 12.37 17.777 12.435 17.72L19.031 11.887C19.189 11.747 19.005 11.501 18.826 11.612Z" fill="white"/>
</svg>
