<svg width="30" height="30" viewBox="0 0 30 30" fill="" xmlns="http://www.w3.org/2000/svg">
<path fill-rule="evenodd" clip-rule="evenodd" d="M19.281 8.387C16.579 7.873 13.84 7.873 11.138 8.387C9.956 8.65 8.469 10.075 8.179 11.221C7.695 13.438 7.695 15.686 8.179 17.904C8.469 19.049 9.956 20.474 11.138 20.738C11.138 20.738 11.138 20.738 11.139 20.738C11.191 20.748 11.23 20.794 11.23 20.847V24.096C11.23 24.258 11.428 24.338 11.541 24.22L13.083 22.637C13.083 22.637 14.313 21.375 14.534 21.148C14.556 21.126 14.585 21.114 14.616 21.114C16.174 21.157 17.734 21.032 19.281 20.738C20.463 20.475 21.95 19.049 22.24 17.904C22.724 15.686 22.724 13.438 22.24 11.221C21.95 10.075 20.463 8.65 19.281 8.387ZM19.322 18.069C19.086 18.571 18.742 18.989 18.246 19.255C18.106 19.33 17.938 19.354 17.78 19.403C17.599 19.348 17.425 19.311 17.265 19.244C15.599 18.553 14.065 17.661 12.85 16.294C12.16 15.516 11.619 14.639 11.162 13.71C10.945 13.269 10.762 12.811 10.576 12.357C10.407 11.942 10.657 11.513 10.92 11.201C11.167 10.908 11.485 10.684 11.829 10.518C12.098 10.389 12.363 10.464 12.559 10.691C12.983 11.184 13.373 11.701 13.689 12.272C13.883 12.623 13.83 13.052 13.478 13.291C13.392 13.349 13.314 13.417 13.235 13.483C13.165 13.54 13.099 13.599 13.051 13.677C12.964 13.819 12.96 13.987 13.016 14.142C13.45 15.333 14.181 16.26 15.38 16.76C15.572 16.839 15.765 16.932 15.986 16.907C16.357 16.863 16.476 16.457 16.736 16.245C16.99 16.037 17.314 16.034 17.587 16.207C17.86 16.381 18.125 16.566 18.389 16.754C18.647 16.938 18.904 17.118 19.143 17.328C19.372 17.53 19.451 17.795 19.322 18.069ZM17.171 14.185C17.05 14.188 17.125 14.185 17.165 14.184C16.987 14.184 16.89 14.085 16.872 13.921C16.859 13.804 16.849 13.686 16.821 13.572C16.766 13.349 16.647 13.142 16.459 13.005C16.371 12.941 16.27 12.893 16.165 12.863C16.031 12.824 15.892 12.835 15.759 12.802C15.614 12.767 15.534 12.649 15.556 12.514C15.577 12.39 15.698 12.293 15.833 12.303C16.678 12.363 17.282 12.801 17.368 13.796C17.374 13.866 17.381 13.94 17.365 14.007C17.339 14.12 17.257 14.176 17.175 14.183C17.189 14.183 17.194 14.184 17.171 14.185ZM16.645 11.91C16.386 11.783 16.106 11.704 15.821 11.657C15.697 11.637 15.572 11.624 15.447 11.607C15.295 11.586 15.215 11.49 15.222 11.34C15.229 11.2 15.331 11.1 15.483 11.109C15.983 11.137 16.466 11.245 16.911 11.481C17.815 11.96 18.332 12.715 18.482 13.725C18.489 13.77 18.5 13.815 18.504 13.862C18.512 13.975 18.518 14.088 18.526 14.238C18.523 14.265 18.521 14.329 18.505 14.39C18.447 14.608 18.115 14.635 18.039 14.415C18.016 14.349 18.013 14.275 18.013 14.204C18.012 13.743 17.911 13.281 17.679 12.88C17.44 12.467 17.074 12.12 16.645 11.91ZM19.439 15.029C19.264 15.031 19.186 14.885 19.175 14.729C19.152 14.419 19.137 14.107 19.094 13.8C18.868 12.176 17.574 10.833 15.958 10.544C15.715 10.501 15.465 10.489 15.219 10.464C15.063 10.448 14.86 10.438 14.825 10.245C14.796 10.082 14.933 9.953 15.088 9.944C15.13 9.942 15.172 9.944 15.214 9.944C17.393 10.005 15.172 9.944 15.214 9.944C17.393 10.005 19.184 11.452 19.567 13.607C19.633 13.974 19.656 14.349 19.685 14.722C19.697 14.878 19.608 15.027 19.439 15.029ZM15 0C6.716 0 0 6.716 0 15C0 23.283 6.716 30 15 30C23.283 30 30 23.283 30 15C30 6.716 23.283 0 15 0ZM23.812 18.259L23.807 18.281C23.372 20.037 21.413 21.923 19.614 22.315L19.594 22.318C18.14 22.596 16.674 22.735 15.209 22.735C14.779 22.735 14.347 22.721 13.916 22.697L11.93 24.763C11.438 25.275 10.573 24.926 10.573 24.216V22.255C8.841 21.761 7.028 19.962 6.612 18.281L6.607 18.259C6.07 15.806 6.07 13.318 6.607 10.865L6.612 10.844C7.047 9.087 9.006 7.203 10.804 6.81L10.825 6.806C13.734 6.251 16.684 6.251 19.594 6.806L19.614 6.81C21.413 7.203 23.372 9.087 23.807 10.844L23.812 10.865C24.349 13.318 24.349 15.806 23.812 18.259Z" fill="white"/>
</svg>
