<svg width="19" height="18" viewBox="0 0 19 18" fill="" xmlns="http://www.w3.org/2000/svg">
<path fill-rule="evenodd" clip-rule="evenodd" d="M18 13.72V16C18 17.1 17.1 18 16 18H2C0.89 18 0 17.1 0 16V2C0 0.9 0.89 0 2 0H16C17.1 0 18 0.9 18 2V4.28C18.59 4.63 19 5.26 19 6V12C19 12.74 18.59 13.37 18 13.72ZM16 2H2V16H16V14H10C8.9 14 8 13.1 8 12V6C8 4.9 8.9 4 10 4H16V2ZM17 6H10V12H17V6ZM13 7.5C13.828 7.5 14.5 8.171 14.5 9C14.5 9.828 13.828 10.5 13 10.5C12.171 10.5 11.5 9.828 11.5 9C11.5 8.171 12.171 7.5 13 7.5Z" fill="white"/>
</svg>
