<svg width="38" height="38" viewBox="0 0 38 38" fill="none" xmlns="http://www.w3.org/2000/svg">
<path fill-rule="evenodd" clip-rule="evenodd" d="M24.4097 38V29.5923H19.3299C16.3611 29.5923 13.7222 28.4669 11.875 26.6132C10.0278 24.7596 8.84028 22.2439 8.84028 19.2648C8.84028 16.2857 9.96181 13.5714 11.809 11.5854C13.6562 9.5993 16.2292 8.40766 19.066 8.40766C21.9028 8.40766 24.4757 9.6655 26.3229 11.7178C28.1701 13.77 29.2917 16.5505 29.2917 19.5958V29.0627C29.2917 31.7108 30.1493 33.7631 31.7326 35.4181C33.316 37.007 35.559 37.9338 38 38V19.5958C38 14.101 35.9549 9.13589 32.5243 5.56098C29.1597 2.11847 24.4757 0 19 0C13.5243 0 8.84028 2.11847 5.47569 5.49477C2.04514 9.00348 0 13.9024 0 19.2648C0 24.4948 1.97917 29.2613 5.27778 32.6376C8.51042 35.9477 12.9965 38 18.1424 38H24.4097Z" fill="#EC6707"/>
</svg>
