<svg width="159" height="26" viewBox="0 0 159 26" fill="none" xmlns="http://www.w3.org/2000/svg">
<path fill-rule="evenodd" clip-rule="evenodd" d="M115.701 11.8177V20.2928H119.511V11.7319C119.511 10.837 119.871 10.0774 120.479 9.53637C121.092 8.9927 121.956 8.67794 122.956 8.67794C124.122 8.67794 124.891 9.01091 125.395 9.47134C126.175 10.1841 126.302 11.1856 126.302 11.7319V16.9553C126.302 18.7684 127.903 20.2459 129.896 20.2928H130.109H130.112V11.8177C130.112 9.87194 129.427 8.22532 128.162 7.07554C126.941 5.96739 125.173 5.32227 122.956 5.32227C120.793 5.32227 118.999 6.00121 117.737 7.13017C116.439 8.29295 115.701 9.93957 115.701 11.8177Z" fill="#EC6707"/>
<path fill-rule="evenodd" clip-rule="evenodd" d="M79.5331 15.8081C79.5331 14.2604 78.8304 13.2927 77.6439 12.6424C76.4171 11.9712 74.669 11.62 72.6301 11.3183C71.5847 11.17 70.7495 11.0296 70.1678 10.8241C69.5112 10.5925 69.157 10.2726 69.157 9.78353C69.157 9.40634 69.4392 9.00574 70.0756 8.73C70.5508 8.5271 71.2305 8.38923 72.1491 8.38923C72.9353 8.38923 73.5718 8.5219 74.0585 8.74041C74.5567 8.96412 74.8936 9.27888 75.0722 9.64046H79.0665C78.7584 8.38403 77.9664 7.33831 76.8289 6.59694C75.6136 5.80354 74.0009 5.35352 72.1491 5.35352C67.4982 5.35352 65.2807 7.69729 65.2807 9.95522C65.2807 11.5394 66.2224 12.5045 67.5154 13.1236C68.8459 13.7609 70.5566 14.0393 72.0224 14.2422C73.4998 14.4503 74.3897 14.6454 74.9195 14.9003C75.5186 15.189 75.6885 15.5402 75.6885 16.0423C75.6885 16.5495 75.34 16.9345 74.7612 17.1946C74.1909 17.4496 73.3875 17.5796 72.4717 17.5796C71.7431 17.5796 70.8647 17.4288 70.1217 17.062C69.5573 16.7836 69.0734 16.383 68.7826 15.8316H64.866C65.1597 17.2753 66.0064 18.4537 67.2505 19.2835C68.5896 20.1757 70.3924 20.67 72.4688 20.67C74.548 20.67 76.3249 20.1601 77.5748 19.2913C78.8074 18.4355 79.5331 17.2259 79.5331 15.8081Z" fill="#EC6707"/>
<path fill-rule="evenodd" clip-rule="evenodd" d="M10.644 20.3006V16.9735H8.41783C7.12766 16.9735 5.97859 16.5391 5.15783 15.8133C4.34283 15.0928 3.84749 14.0861 3.84749 12.9311C3.84749 11.7553 4.34859 10.6888 5.15495 9.91357C5.96419 9.13838 7.08446 8.65714 8.3228 8.65714C9.56114 8.65714 10.6814 9.15399 11.4906 9.95259C12.2999 10.7486 12.7981 11.8463 12.7981 13.0507V16.7758C12.8067 17.8111 13.1667 18.6253 13.8752 19.2835C14.5548 19.8974 15.5311 20.2772 16.6082 20.2954V13.0481C16.6082 10.8839 15.724 8.92508 14.2208 7.52298C12.7635 6.1677 10.7188 5.33008 8.3228 5.33008C5.92099 5.33008 3.87341 6.16249 2.41332 7.49696C0.889877 8.88346 0 10.8188 0 12.9311C0 14.9913 0.861079 16.846 2.29237 18.1805C3.70062 19.4916 5.66181 20.3006 7.89946 20.3006H10.644Z" fill="#EC6707"/>
<path fill-rule="evenodd" clip-rule="evenodd" d="M159 17.3116C156.906 17.2179 155.97 15.7976 155.97 14.3799V9.00043H159V5.70458H155.97V0.00512695H152.16V14.2629C152.16 16.1176 152.869 17.7356 154.133 18.8776C155.311 19.9415 156.976 20.5944 159 20.6386V17.3116Z" fill="#EC6707"/>
<path d="M112.246 16.5884H108.113V20.2926H112.246V16.5884Z" fill="#EC6707"/>
<path fill-rule="evenodd" clip-rule="evenodd" d="M90.2462 11.8177V20.2928H94.0563V11.7319C94.0563 10.837 94.4162 10.0774 95.0239 9.53637C95.6373 8.9927 96.5013 8.67794 97.5006 8.67794C98.6669 8.67794 99.3754 9.07334 99.8793 9.53377C100.66 10.2465 100.85 10.9723 100.85 11.7319V16.9553C100.85 18.7684 102.451 20.2459 104.444 20.2928H104.657H104.66V11.8177C104.66 9.87194 103.974 8.22532 102.71 7.07554C101.489 5.96739 99.721 5.32227 97.5035 5.32227C95.3407 5.32227 93.5465 6.00121 92.2852 7.13017C90.9835 8.29295 90.2462 9.93957 90.2462 11.8177Z" fill="#EC6707"/>
<path d="M86.5197 5.70215H82.7096V20.2928H86.5197V5.70215Z" fill="#EC6707"/>
<path d="M62.326 0H58.4843V20.2927H62.326V0Z" fill="#EC6707"/>
<path fill-rule="evenodd" clip-rule="evenodd" d="M48.1282 14.2968H55.3365C55.3739 13.917 55.3941 13.5477 55.3941 13.1887C55.3941 10.8449 54.582 8.98238 53.2745 7.66352C51.9699 6.34466 50.1671 5.56167 48.1858 5.37177C47.8719 5.34056 47.5493 5.32495 47.221 5.32495C44.9287 5.32495 42.8494 6.19118 41.3432 7.58548C39.8371 8.98238 38.9011 10.9125 38.9011 13.043C38.9011 15.1423 39.8371 17.0516 41.3432 18.4355C42.8494 19.8168 44.9287 20.6726 47.2182 20.6726C49.1765 20.6726 50.8583 20.1836 52.1744 19.3356C53.3955 18.55 54.3026 17.4522 54.8239 16.1464H50.6711C50.3111 16.56 49.8676 16.8747 49.3694 17.101C48.6955 17.408 47.9266 17.5511 47.1519 17.5511C45.8819 17.5511 44.7242 17.0568 43.8919 16.2322C43.0827 15.431 42.5816 14.3176 42.5816 13.043C42.5816 11.7502 43.0856 10.6056 43.9006 9.77838C44.7328 8.93035 45.8877 8.4179 47.1548 8.4179C48.1656 8.4179 49.1102 8.68583 49.8734 9.18268C50.6164 9.66392 51.1895 10.3611 51.489 11.2377L51.5783 11.4978H44.9287C44.9431 12.2106 45.2627 12.9207 45.7696 13.4124C46.3283 13.9509 47.1318 14.2396 48.013 14.2942L48.1282 14.2968Z" fill="#EC6707"/>
<path fill-rule="evenodd" clip-rule="evenodd" d="M25.9158 20.2928H28.6603C30.898 20.2928 32.8477 19.4863 34.2473 18.1779C35.6728 16.8434 36.5281 14.9861 36.5281 12.9233C36.5281 10.8084 35.6469 8.87044 34.1321 7.48395C32.6806 6.15208 30.6417 5.32227 28.2428 5.32227C25.8467 5.32227 23.802 6.15988 22.3448 7.51516C20.8386 8.91726 19.9574 10.876 19.9574 13.0403V26H23.7675V13.0403C23.7675 11.8359 24.2685 10.7382 25.0749 9.94218C25.8842 9.14358 27.0044 8.64673 28.2428 8.64673C29.4811 8.64673 30.5985 9.12797 31.4106 9.90316C32.2198 10.6783 32.7181 11.7475 32.7181 12.9207C32.7181 14.0756 32.2227 15.0823 31.4077 15.8029C30.5841 16.5287 29.4379 16.9631 28.1477 16.9631H25.9216V20.2928H25.9158Z" fill="#EC6707"/>
<path fill-rule="evenodd" clip-rule="evenodd" d="M141.767 14.2968H148.975C149.016 13.917 149.033 13.5477 149.033 13.1887C149.033 10.8449 148.221 8.98238 146.913 7.66352C145.609 6.34466 143.806 5.56167 141.825 5.37177C141.511 5.34056 141.188 5.32495 140.863 5.32495C138.57 5.32495 136.491 6.19118 134.985 7.58548C133.479 8.98238 132.543 10.9125 132.543 13.043C132.543 15.1449 133.479 17.0516 134.985 18.4355C136.491 19.8168 138.57 20.6726 140.86 20.6726C142.818 20.6726 144.5 20.1836 145.816 19.3356C147.037 18.5474 147.944 17.4496 148.465 16.1464H144.313C143.956 16.56 143.509 16.8747 143.011 17.101C142.337 17.408 141.568 17.5511 140.794 17.5511C139.524 17.5511 138.366 17.0568 137.534 16.2322C136.724 15.431 136.223 14.3176 136.223 13.043C136.223 11.7502 136.73 10.6056 137.542 9.77838C138.374 8.93035 139.529 8.4179 140.796 8.4179C141.807 8.4179 142.752 8.68583 143.515 9.18268C144.258 9.66392 144.831 10.3637 145.131 11.2377L145.22 11.4978H138.57C138.593 12.2106 138.901 12.8999 139.405 13.3916C139.961 13.9301 140.759 14.237 141.652 14.2942L141.767 14.2968Z" fill="#EC6707"/>
<path fill-rule="evenodd" clip-rule="evenodd" d="M86.6061 0.421387H84.6564C84.1208 0.421387 83.6341 0.619086 83.2799 0.939045C82.9257 1.25901 82.7068 1.69863 82.7068 2.18247V3.94355H84.6564C85.1921 3.94355 85.6788 3.74585 86.033 3.42589C86.3872 3.10593 86.6061 2.66631 86.6061 2.18247V0.421387Z" fill="#73B129"/>
</svg>
