<svg width="109" height="27" viewBox="0 0 109 27" fill="none" xmlns="http://www.w3.org/2000/svg">
<path d="M0 0.0935059V13.0592V26.025L13.8059 13.0592L0 0.0935059Z" fill="url(#paint0_linear)"/>
<path d="M17.5123 9.57839L11.9407 6.52978L0 0V0.0938384L13.8059 13.0596L17.5123 9.57839Z" fill="url(#paint1_linear)"/>
<path d="M0 26.025V26.1212L11.9407 19.5891L17.5123 16.5428L13.8059 13.0593L0 26.025Z" fill="url(#paint2_linear)"/>
<path d="M17.5125 9.57812L13.8062 13.0593L17.5125 16.5428L23.8815 13.0593L17.5125 9.57812Z" fill="url(#paint3_linear)"/>
<path d="M86.9095 18.1295C86.39 18.1295 85.9189 18.038 85.4888 17.8572C85.0611 17.6764 84.7011 17.3971 84.4088 17.0218H84.3218C84.3798 17.4612 84.4088 17.8801 84.4088 18.2737V21.3773H83.2031V10.4508H84.1841L84.3508 11.483H84.4088C84.7181 11.0711 85.0805 10.7712 85.4912 10.5881C85.902 10.405 86.3755 10.3135 86.9071 10.3135C87.9629 10.3135 88.7772 10.6545 89.3522 11.3388C89.9273 12.0232 90.2124 12.9822 90.2124 14.2158C90.2124 15.454 89.92 16.4176 89.3377 17.1019C88.7554 17.7862 87.946 18.1295 86.9095 18.1295ZM86.7355 11.2839C85.9213 11.2839 85.3342 11.4968 84.9718 11.9248C84.6093 12.3505 84.4209 13.0302 84.4112 13.9617V14.2158C84.4112 15.2755 84.5972 16.033 84.9718 16.4908C85.3438 16.9463 85.943 17.1751 86.7645 17.1751C87.4531 17.1751 87.9919 16.9119 88.3809 16.3832C88.7699 15.8568 88.9657 15.129 88.9657 14.2021C88.9657 13.2614 88.7699 12.5404 88.3809 12.0369C87.9895 11.5334 87.4411 11.2839 86.7355 11.2839Z" fill="#F9F9F9"/>
<path d="M93.0051 17.9921H91.7994V7.2854H93.0051V17.9921Z" fill="#F9F9F9"/>
<path d="M99.9397 17.9921L99.7005 16.9186H99.6425C99.2462 17.3924 98.85 17.7105 98.4537 17.8776C98.0599 18.0447 97.567 18.1294 96.975 18.1294C96.185 18.1294 95.5664 17.9371 95.1194 17.5503C94.6725 17.1658 94.4478 16.6165 94.4478 15.907C94.4478 14.385 95.7331 13.5862 98.3039 13.513L99.6546 13.4718V13.0049C99.6546 12.4121 99.5193 11.975 99.2511 11.6934C98.9829 11.4119 98.5528 11.27 97.9608 11.27C97.2964 11.27 96.5474 11.4623 95.709 11.8491L95.3393 10.9748C95.7331 10.7734 96.1608 10.6154 96.6295 10.501C97.0959 10.3866 97.5646 10.3293 98.0357 10.3293C98.9853 10.3293 99.6884 10.5285 100.145 10.929C100.602 11.3272 100.831 11.9681 100.831 12.8493V17.9966H99.9397V17.9921ZM97.2142 17.1864C97.9657 17.1864 98.5528 16.9919 98.9829 16.6028C99.4105 16.2137 99.6256 15.6667 99.6256 14.9641V14.282L98.4199 14.3301C97.4607 14.3621 96.7697 14.504 96.3468 14.7535C95.924 15.003 95.7114 15.392 95.7114 15.9207C95.7114 16.3327 95.8443 16.6486 96.1076 16.8637C96.371 17.0788 96.7407 17.1864 97.2142 17.1864Z" fill="#F9F9F9"/>
<path d="M101.532 10.4512H102.824L104.569 14.7517C104.95 15.7336 105.19 16.4431 105.281 16.878H105.339C105.402 16.6445 105.535 16.244 105.736 15.6764C105.936 15.1088 106.593 13.3693 107.707 10.4512H109L105.579 19.0385C105.24 19.8877 104.844 20.4896 104.39 20.8443C103.938 21.1991 103.382 21.3776 102.723 21.3776C102.356 21.3776 101.991 21.3387 101.633 21.2609V20.3454C101.899 20.4003 102.198 20.4278 102.527 20.4278C103.356 20.4278 103.945 19.9884 104.301 19.1072L104.743 18.0338L101.532 10.4512Z" fill="#F9F9F9"/>
<path d="M64.5724 11.1511C64.9542 11.4509 65.7539 12.0826 65.7539 13.2819C65.7539 14.4492 65.0557 15.0008 64.355 15.5226C64.1375 15.7263 63.8886 15.9483 63.8886 16.2962C63.8886 16.6418 64.1375 16.8318 64.3211 16.9737L64.9203 17.4154C65.6524 17.999 66.3193 18.5369 66.3193 19.624C66.3193 21.1071 64.8044 22.604 61.9412 22.604C59.5251 22.604 58.3605 21.5168 58.3605 20.3473C58.3605 19.7797 58.6601 18.9763 59.6435 18.4224C60.6752 17.8228 62.0741 17.745 62.8231 17.6969C62.5888 17.4131 62.323 17.1133 62.323 16.6258C62.323 16.358 62.4075 16.2001 62.4897 16.0101C62.3061 16.0261 62.1224 16.0422 61.9557 16.0422C60.1919 16.0422 59.1916 14.7948 59.1916 13.5657C59.1916 12.8402 59.542 12.0346 60.2572 11.4509C61.2067 10.7094 62.3399 10.5835 63.2387 10.5835H66.6672L65.6017 11.1511H64.5724ZM63.3885 18.1547C63.2556 18.1386 63.1711 18.1386 63.0068 18.1386C62.857 18.1386 61.9557 18.1707 61.2575 18.3927C60.8902 18.5186 59.8247 18.8962 59.8247 20.0177C59.8247 21.1369 60.9748 21.9425 62.7555 21.9425C64.3526 21.9425 65.203 21.2147 65.203 20.2374C65.2055 19.4318 64.6546 19.0084 63.3885 18.1547ZM63.8717 15.1587C64.2535 14.7948 64.2873 14.2913 64.2873 14.0075C64.2873 12.8722 63.5721 11.1053 62.1901 11.1053C61.7576 11.1053 61.2913 11.309 61.0231 11.6272C60.7404 11.959 60.6558 12.3847 60.6558 12.7944C60.6558 13.8518 61.3058 15.6027 62.7386 15.6027C63.1566 15.6004 63.606 15.4105 63.8717 15.1587Z" fill="#F9F9F9"/>
<path d="M54.088 17.9023C51.4447 17.9023 50.0312 15.95 50.0312 14.1854C50.0312 12.1233 51.8095 10.3586 54.3368 10.3586C56.7796 10.3586 58.309 12.169 58.309 14.0756C58.3114 15.934 56.7989 17.9023 54.088 17.9023ZM56.1659 16.6275C56.5645 16.124 56.666 15.4923 56.666 14.8789C56.666 13.4919 55.9677 10.8461 53.9068 10.8461C53.3583 10.8461 52.8098 11.0521 52.4112 11.3817C51.7636 11.9333 51.6452 12.6245 51.6452 13.3043C51.6452 14.8629 52.4595 17.4286 54.4721 17.4286C55.1197 17.4286 55.7841 17.131 56.1659 16.6275Z" fill="#F9F9F9"/>
<path d="M45.0786 17.9023C42.4353 17.9023 41.0219 15.95 41.0219 14.1854C41.0219 12.1233 42.8001 10.3586 45.3275 10.3586C47.7702 10.3586 49.2996 12.169 49.2996 14.0756C49.2996 15.934 47.7871 17.9023 45.0786 17.9023ZM47.1565 16.6275C47.5552 16.124 47.6566 15.4923 47.6566 14.8789C47.6566 13.4919 46.9584 10.8461 44.8974 10.8461C44.3489 10.8461 43.8004 11.0521 43.4018 11.3817C42.7542 11.9333 42.6358 12.6245 42.6358 13.3043C42.6358 14.8629 43.4501 17.4286 45.4628 17.4286C46.1079 17.4286 46.7723 17.131 47.1565 16.6275Z" fill="#F9F9F9"/>
<path d="M39.7508 17.6551L37.3612 18.1769C36.3923 18.3188 35.5225 18.4447 34.6044 18.4447C29.9895 18.4447 28.2354 15.2313 28.2354 12.7137C28.2354 9.64221 30.7264 6.79272 34.9885 6.79272C35.8922 6.79272 36.7596 6.91861 37.5448 7.12459C38.7988 7.45646 39.3835 7.86843 39.7508 8.10646L38.3639 9.35612L37.7792 9.482L38.1972 8.84801C37.6294 8.32618 36.5929 7.36033 34.6213 7.36033C31.9804 7.36033 29.9919 9.25999 29.9919 12.0317C29.9919 15.007 32.2655 17.8107 35.9091 17.8107C36.9794 17.8107 37.5303 17.6047 38.0329 17.4148V14.8697L35.5104 14.9956L36.8466 14.3135H40.3911L39.9561 14.7095C39.8378 14.8056 39.8233 14.8377 39.7894 14.9635C39.7725 15.1054 39.7556 15.5655 39.7556 15.7234V17.6551H39.7508Z" fill="#F9F9F9"/>
<path d="M69.8539 17.1998C69.303 17.1517 69.187 17.0579 69.187 16.4399V16.266V7.47723C69.1895 7.4429 69.1919 7.40857 69.1967 7.37424C69.2644 6.82036 69.4311 6.72652 69.9505 6.44043H67.5586L66.3046 7.01033H67.5827V7.01719V7.01033V16.2614V16.7855C67.5827 17.1014 67.5175 17.1495 67.1309 17.6232H70.0907L70.7092 17.2753C70.4241 17.2456 70.139 17.2318 69.8539 17.1998Z" fill="#F9F9F9"/>
<path d="M76.6555 17.3437C76.4742 17.4375 76.2906 17.5497 76.1094 17.6275C75.5609 17.8633 74.9956 17.9273 74.4978 17.9273C73.9687 17.9273 73.1375 17.8953 72.2895 17.314C71.1128 16.5266 70.5981 15.174 70.5981 13.9953C70.5981 11.5578 72.6905 10.363 74.3988 10.363C74.9956 10.363 75.6117 10.5049 76.1094 10.8025C76.9381 11.3197 77.1556 11.9972 77.2692 12.3588L73.3695 13.8534L72.0913 13.9472C72.5045 15.943 73.9324 17.1057 75.5102 17.1057C76.3559 17.1057 76.972 16.8242 77.5349 16.5564L76.6555 17.3437ZM75.097 12.6586C75.4111 12.5488 75.5778 12.4549 75.5778 12.2352C75.5778 11.6058 74.8313 10.8826 73.9349 10.8826C73.2704 10.8826 72.0261 11.3701 72.0261 13.0683C72.0261 13.3361 72.0599 13.6176 72.0768 13.9014L75.097 12.6586Z" fill="#F9F9F9"/>
<path d="M78.2597 10.4711V11.5079H78.1268V10.4711H77.7644V10.3635H78.6221V10.4711H78.2597Z" fill="#F9F9F9"/>
<path d="M79.7506 11.5077V10.4594H79.7433L79.4051 11.5077H79.3012L78.9605 10.4594H78.9556V11.5077H78.8348V10.3633H79.0426L79.3495 11.2879H79.3543L79.6563 10.3633H79.8665V11.5077H79.7506Z" fill="#F9F9F9"/>
<path d="M31.5528 3.71074H30.7216C30.7216 3.60317 30.6419 3.29648 30.4848 2.79067H29.2864C29.1245 3.28732 29.0424 3.59401 29.0424 3.71074H28.262C28.262 3.64666 28.4649 3.12253 28.8684 2.13609C29.2719 1.15193 29.4749 0.609494 29.4749 0.508789H30.4558C30.4558 0.602628 30.6395 1.1359 31.0043 2.1132C31.3716 3.09049 31.5528 3.62377 31.5528 3.71074ZM30.3544 2.32376C30.0596 1.47693 29.9098 1.02147 29.9098 0.952805H29.8687C29.8687 1.01689 29.7165 1.47464 29.4096 2.32376H30.3544Z" fill="#FCFCFD"/>
<path d="M34.9017 3.71001H34.2615C34.2615 3.64363 34.0247 3.28888 33.5487 2.64574C33.051 1.96828 32.7658 1.50595 32.6982 1.25648H32.6571C32.7006 1.61581 32.7224 1.94081 32.7224 2.22919C32.7224 2.6343 32.7344 3.12638 32.7586 3.71001H32.1207C32.1473 3.20191 32.1594 2.64345 32.1594 2.03465C32.1594 1.43729 32.1473 0.926897 32.1207 0.508057H32.8915C32.8915 0.595029 33.1041 0.940629 33.5318 1.54715C33.986 2.19028 34.247 2.62743 34.3146 2.8586H34.3533C34.3122 2.4924 34.2904 2.16511 34.2904 1.87444C34.2904 1.43042 34.2784 0.97496 34.2542 0.508057H34.9042C34.88 0.915453 34.8679 1.42355 34.8679 2.03465C34.8655 2.65261 34.8752 3.21106 34.9017 3.71001Z" fill="#FCFCFD"/>
<path d="M38.6634 2.00053C38.6634 2.46515 38.5063 2.87254 38.1898 3.22043C37.8757 3.56832 37.4336 3.74226 36.8658 3.74226C36.6097 3.74226 36.2569 3.73311 35.8075 3.71251C35.8292 3.21814 35.8413 2.65969 35.8413 2.03715C35.8413 1.43979 35.8292 0.931687 35.8075 0.510558H36.2617C36.3366 0.510558 36.4478 0.50827 36.5952 0.503692C36.7426 0.499115 36.8392 0.496826 36.8827 0.496826C37.5085 0.496826 37.9603 0.643306 38.2406 0.938554C38.5208 1.2338 38.6634 1.58627 38.6634 2.00053ZM37.953 2.10581C37.953 1.78997 37.8564 1.52676 37.6631 1.30933C37.4698 1.09419 37.1726 0.986617 36.7764 0.986617C36.7015 0.986617 36.6 0.993483 36.4695 1.0095C36.4864 1.33679 36.4961 1.68011 36.4961 2.03715C36.4961 2.42853 36.5058 2.81761 36.5227 3.20212C36.6362 3.22272 36.7474 3.23416 36.8609 3.23416C37.233 3.23416 37.5085 3.1243 37.6873 2.90687C37.8636 2.68715 37.953 2.42166 37.953 2.10581Z" fill="#FCFCFD"/>
<path d="M42.1307 3.71022H41.3624C41.1618 3.12888 41.0072 2.77184 40.9009 2.6368C40.7946 2.50176 40.6206 2.4331 40.3814 2.4331C40.2799 2.4331 40.1857 2.4331 40.0939 2.43539C40.0939 2.85652 40.1011 3.28223 40.1181 3.71251H39.3956C39.4174 3.21814 39.4295 2.65969 39.4295 2.03715C39.4295 1.43979 39.4174 0.931687 39.3956 0.510558H39.845C39.8958 0.510558 40.0045 0.50827 40.1712 0.503692C40.3355 0.499115 40.4902 0.496826 40.6303 0.496826C41.4252 0.496826 41.8215 0.753165 41.8215 1.26813C41.8215 1.67553 41.5943 1.96162 41.1425 2.12183V2.15845C41.3165 2.20423 41.4711 2.3324 41.6016 2.54525C41.7296 2.75581 41.9084 3.1449 42.1307 3.71022ZM41.157 1.44894C41.157 1.12394 40.9347 0.959152 40.4926 0.959152C40.3307 0.959152 40.1857 0.970595 40.0625 0.993483C40.0818 1.24753 40.0915 1.5794 40.0915 1.9868C40.1857 1.98909 40.2679 1.99137 40.3331 1.99137C40.8816 1.99366 41.157 1.81056 41.157 1.44894Z" fill="#FCFCFD"/>
<path d="M45.8516 2.05082C45.8516 2.55434 45.6897 2.97089 45.3635 3.30276C45.0373 3.63463 44.6362 3.79942 44.1554 3.79942C43.6988 3.79942 43.317 3.64836 43.0078 3.34396C42.7009 3.03956 42.5463 2.65276 42.5463 2.18586C42.5463 1.68233 42.7081 1.26578 43.0343 0.933914C43.3605 0.602046 43.7616 0.437256 44.2424 0.437256C44.6991 0.437256 45.0808 0.588313 45.3901 0.892716C45.6969 1.19483 45.8516 1.58163 45.8516 2.05082ZM45.1364 2.12406C45.1364 1.78075 45.0446 1.50381 44.8585 1.29096C44.6725 1.0781 44.4454 0.970533 44.1723 0.970533C43.9186 0.970533 43.706 1.0781 43.5296 1.29325C43.3533 1.50839 43.2639 1.77846 43.2639 2.10804C43.2639 2.44906 43.3557 2.726 43.5417 2.94114C43.7278 3.15399 43.9549 3.26156 44.2255 3.26156C44.4792 3.26156 44.6918 3.15399 44.8682 2.93885C45.047 2.71913 45.1364 2.44906 45.1364 2.12406Z" fill="#FCFCFD"/>
<path d="M47.3181 3.71001H46.5836C46.6054 3.20191 46.6174 2.64345 46.6174 2.03465C46.6174 1.43729 46.6054 0.926897 46.5836 0.508057H47.3181C47.2964 0.92003 47.2843 1.43042 47.2843 2.03465C47.2843 2.6549 47.2964 3.21335 47.3181 3.71001Z" fill="#FCFCFD"/>
<path d="M51.0803 2.00053C51.0803 2.46515 50.9232 2.87254 50.6067 3.22043C50.2926 3.56832 49.8504 3.74226 49.2826 3.74226C49.0265 3.74226 48.6738 3.73311 48.2244 3.71251C48.2461 3.21814 48.2582 2.65969 48.2582 2.03715C48.2582 1.43979 48.2461 0.931687 48.2244 0.510558H48.6786C48.7535 0.510558 48.8646 0.50827 49.012 0.503692C49.1594 0.499115 49.2561 0.496826 49.2996 0.496826C49.9229 0.496826 50.3772 0.643306 50.6574 0.938554C50.9401 1.2338 51.0803 1.58627 51.0803 2.00053ZM50.3723 2.10581C50.3723 1.78997 50.2757 1.52676 50.0824 1.30933C49.8891 1.09419 49.5919 0.986617 49.1957 0.986617C49.1208 0.986617 49.0193 0.993483 48.8888 1.0095C48.9057 1.33679 48.9154 1.68011 48.9154 2.03715C48.9154 2.42853 48.925 2.81761 48.942 3.20212C49.0555 3.22272 49.1667 3.23416 49.2802 3.23416C49.6523 3.23416 49.9278 3.1243 50.1065 2.90687C50.2829 2.68715 50.3723 2.42166 50.3723 2.10581Z" fill="#FCFCFD"/>
<path d="M56.0714 3.71001H55.2403C55.2403 3.60244 55.1606 3.29575 55.0035 2.78993H53.8051C53.6432 3.28659 53.5611 3.59328 53.5611 3.71001H52.7806C52.7806 3.64592 52.9836 3.1218 53.3871 2.13535C53.7906 1.15119 53.9935 0.608761 53.9935 0.508057H54.9745C54.9745 0.601895 55.1581 1.13517 55.523 2.11247C55.8878 3.08976 56.0714 3.62304 56.0714 3.71001ZM54.873 2.32303C54.5783 1.4762 54.4285 1.02073 54.4285 0.952073H54.3874C54.3874 1.01616 54.2352 1.47391 53.9283 2.32303H54.873Z" fill="#FCFCFD"/>
<path d="M59.0996 1.34833C59.0996 1.7397 58.9449 2.03038 58.6381 2.21576C58.3312 2.40344 57.9543 2.49499 57.5073 2.49499C57.4252 2.49499 57.3672 2.4927 57.3334 2.49041C57.3334 2.79939 57.343 3.2045 57.3624 3.71031H56.6327C56.6544 3.23654 56.6665 2.67809 56.6665 2.03495C56.6665 1.44446 56.6544 0.936357 56.6327 0.508362H57.0845C57.1473 0.508362 57.2706 0.506073 57.4542 0.501496C57.6354 0.496918 57.7924 0.494629 57.9253 0.494629C58.2539 0.494629 58.5318 0.56558 58.7589 0.705194C58.986 0.844807 59.0996 1.06224 59.0996 1.34833ZM58.4303 1.48337C58.4303 1.13319 58.1839 0.956955 57.6934 0.956955C57.5702 0.956955 57.4397 0.968399 57.3044 0.993575C57.3237 1.30256 57.3334 1.65502 57.3334 2.0464C57.3769 2.04869 57.4276 2.05097 57.4832 2.05097C58.1138 2.05097 58.4303 1.8633 58.4303 1.48337Z" fill="#FCFCFD"/>
<path d="M62.2118 1.34833C62.2118 1.7397 62.0571 2.03038 61.7503 2.21576C61.4434 2.40344 61.0665 2.49499 60.6195 2.49499C60.5374 2.49499 60.4794 2.4927 60.4456 2.49041C60.4456 2.79939 60.4552 3.2045 60.4746 3.71031H59.7449C59.7666 3.23654 59.7787 2.67809 59.7787 2.03495C59.7787 1.44446 59.7666 0.936357 59.7449 0.508362H60.1967C60.2595 0.508362 60.3827 0.506073 60.5664 0.501496C60.7476 0.496918 60.9046 0.494629 61.0399 0.494629C61.3685 0.494629 61.6464 0.56558 61.8735 0.705194C62.1006 0.847096 62.2118 1.06224 62.2118 1.34833ZM61.5425 1.48337C61.5425 1.13319 61.296 0.956955 60.8056 0.956955C60.6823 0.956955 60.5519 0.968399 60.4166 0.993575C60.4359 1.30256 60.4456 1.65502 60.4456 2.0464C60.4891 2.04869 60.5398 2.05097 60.5954 2.05097C61.2284 2.05097 61.5425 1.8633 61.5425 1.48337Z" fill="#FCFCFD"/>
<path d="M67.3021 2.05082C67.3021 2.55434 67.1402 2.97089 66.814 3.30276C66.4879 3.63463 66.0868 3.79942 65.606 3.79942C65.1493 3.79942 64.7676 3.64836 64.4583 3.34396C64.1515 3.03956 63.9968 2.65276 63.9968 2.18586C63.9968 1.68233 64.1587 1.26578 64.4849 0.933914C64.8111 0.602046 65.2121 0.437256 65.693 0.437256C66.1496 0.437256 66.5314 0.588313 66.8406 0.892716C67.1475 1.19483 67.3021 1.58163 67.3021 2.05082ZM66.5845 2.12406C66.5845 1.78075 66.4927 1.50381 66.3067 1.29096C66.1206 1.0781 65.8935 0.970533 65.6205 0.970533C65.3668 0.970533 65.1542 1.0781 64.9778 1.29325C64.8014 1.50839 64.712 1.77846 64.712 2.10804C64.712 2.44906 64.8038 2.726 64.9923 2.94114C65.1783 3.15399 65.4054 3.26156 65.676 3.26156C65.9297 3.26156 66.1424 3.15399 66.3187 2.93885C66.4975 2.71913 66.5845 2.44906 66.5845 2.12406Z" fill="#FCFCFD"/>
<path d="M70.8206 3.71001H70.1803C70.1803 3.64363 69.9435 3.28888 69.4675 2.64574C68.9698 1.96828 68.6847 1.50595 68.617 1.25648H68.5759C68.6194 1.61581 68.6412 1.94081 68.6412 2.22919C68.6412 2.6343 68.6533 3.12638 68.6774 3.71001H68.0396C68.0661 3.20191 68.0782 2.64345 68.0782 2.03465C68.0782 1.43729 68.0661 0.926897 68.0396 0.508057H68.8103C68.8103 0.595029 69.0229 0.940629 69.4506 1.54715C69.9048 2.19028 70.1658 2.62743 70.2334 2.8586H70.2721C70.231 2.4924 70.2093 2.16511 70.2093 1.87444C70.2093 1.43042 70.1972 0.97496 70.173 0.508057H70.823C70.7988 0.915453 70.7867 1.42355 70.7867 2.03465C70.7843 2.65261 70.7964 3.21106 70.8206 3.71001Z" fill="#FCFCFD"/>
<defs>
<linearGradient id="paint0_linear" x1="6.90336" y1="0.0937347" x2="6.90336" y2="26.0258" gradientUnits="userSpaceOnUse">
<stop stop-color="#2079B0"/>
<stop offset="0.2863" stop-color="#4A93B8"/>
<stop offset="0.767" stop-color="#83BEBF"/>
<stop offset="1" stop-color="#97CFBF"/>
</linearGradient>
<linearGradient id="paint1_linear" x1="0.0011356" y1="6.53004" x2="17.5134" y2="6.53004" gradientUnits="userSpaceOnUse">
<stop stop-color="#5ABCAB"/>
<stop offset="1" stop-color="#E6E99A"/>
</linearGradient>
<linearGradient id="paint2_linear" x1="8.75714" y1="13.0601" x2="8.75714" y2="26.1202" gradientUnits="userSpaceOnUse">
<stop stop-color="#E53432"/>
<stop offset="0.1668" stop-color="#D73948"/>
<stop offset="0.5748" stop-color="#B33F72"/>
<stop offset="0.8619" stop-color="#9A4189"/>
<stop offset="1" stop-color="#904192"/>
</linearGradient>
<linearGradient id="paint3_linear" x1="18.8437" y1="9.57732" x2="18.8437" y2="16.5423" gradientUnits="userSpaceOnUse">
<stop stop-color="#F18779"/>
<stop offset="0.1194" stop-color="#F2917A"/>
<stop offset="0.7128" stop-color="#FABC77"/>
<stop offset="1" stop-color="#FDCB73"/>
</linearGradient>
</defs>
</svg>
