<svg width="14" height="14" viewBox="0 0 14 14" fill="none" xmlns="http://www.w3.org/2000/svg">
<path fill-rule="evenodd" clip-rule="evenodd" d="M7 0C3.13979 0 0 3.14018 0 7.00027C0 10.8604 3.13979 14 7 14C10.8602 14 14 10.8604 14 7.00027C14 3.14018 10.8602 0 7 0ZM10.548 5.51684L6.75604 9.30826C6.64252 9.42216 6.49298 9.47939 6.34399 9.47939C6.19445 9.47939 6.04491 9.42216 5.93139 9.30826L4.0354 7.41282C3.80727 7.18448 3.80727 6.81607 4.0354 6.58772C4.26353 6.35992 4.63247 6.35992 4.8606 6.58772L6.34399 8.07116L9.72283 4.69228C9.95096 4.46393 10.3199 4.46393 10.548 4.69228C10.7762 4.92008 10.7762 5.28849 10.548 5.51684Z" fill="#FFCB3D"/>
</svg>
